<?xml version="1.0" encoding="UTF-8" standalone="no"?>
<!-- Generator: Adobe Illustrator 16.0.0, SVG Export Plug-In . SVG Version: 6.00 Build 0)  -->

<svg
   version="1.1"
   x="0px"
   y="0px"
   width="470.287px"
   height="514.251px"
   viewBox="0 0 470.287 514.251"
   enable-background="new 0 0 470.287 514.251"
   xml:space="preserve"
   id="svg796"
   sodipodi:docname="arbitrum.svg"
   inkscape:version="1.1.2 (0a00cf5339, 2022-02-04)"
   xmlns:inkscape="http://www.inkscape.org/namespaces/inkscape"
   xmlns:sodipodi="http://sodipodi.sourceforge.net/DTD/sodipodi-0.dtd"
   xmlns="http://www.w3.org/2000/svg"
   xmlns:svg="http://www.w3.org/2000/svg"><defs
   id="defs800" /><sodipodi:namedview
   id="namedview798"
   pagecolor="#ffffff"
   bordercolor="#666666"
   borderopacity="1.0"
   inkscape:pageshadow="2"
   inkscape:pageopacity="0.0"
   inkscape:pagecheckerboard="true"
   showgrid="false"
   inkscape:zoom="1.6976147"
   inkscape:cx="-58.022589"
   inkscape:cy="257.12548"
   inkscape:window-width="2560"
   inkscape:window-height="1376"
   inkscape:window-x="0"
   inkscape:window-y="27"
   inkscape:window-maximized="1"
   inkscape:current-layer="Icon" />
<g
   id="Background"
   style="fill:none">
</g>
		<g
   id="Icon">
			<path
   fill="#2d374b"
   d="m 291.134,237.469 35.654,-60.5 96.103,149.684 0.046,28.727 -0.313,-197.672 c -0.228,-4.832 -2.794,-9.252 -6.887,-11.859 L 242.715,46.324 c -4.045,-1.99 -9.18,-1.967 -13.22,0.063 -0.546,0.272 -1.06,0.57 -1.548,0.895 l -0.604,0.379 -167.944,97.322 -0.651,0.296 c -0.838,0.385 -1.686,0.875 -2.48,1.444 -3.185,2.283 -5.299,5.66 -5.983,9.448 -0.103,0.574 -0.179,1.158 -0.214,1.749 l 0.264,161.083 89.515,-138.745 c 11.271,-18.397 35.825,-24.323 58.62,-24.001 l 26.753,0.706 -157.635,252.802 18.582,10.697 159.522,-263.242 70.51,-0.256 -159.111,269.885 66.306,38.138 7.922,4.556 c 3.351,1.362 7.302,1.431 10.681,0.21 l 175.453,-101.678 -33.544,19.438 z m 13.602,195.926 -66.969,-105.108 40.881,-69.371 87.952,138.628 z"
   id="path783"
   style="fill:none" />
			<polygon
   fill="#28a0f0"
   points="304.736,433.395 366.601,397.543 278.648,258.915 237.768,328.286 "
   id="polygon785"
   style="fill:#ffffff" />
			<path
   fill="#28a0f0"
   d="m 422.937,355.379 -0.046,-28.727 -96.103,-149.684 -35.654,60.5 92.774,150.043 33.544,-19.438 c 3.29,-2.673 5.281,-6.594 5.49,-10.825 z"
   id="path787"
   style="fill:#ffffff" />
			<path
   fill="#ffffff"
   d="m 20.219,382.469 47.369,27.296 157.634,-252.801 -26.753,-0.706 c -22.795,-0.322 -47.35,5.604 -58.62,24.001 L 50.334,319.004 20.219,365.275 Z"
   id="path789"
   style="fill:#ffffff" />
			<polygon
   fill="#ffffff"
   points="316.202,156.964 245.692,157.22 86.17,420.462 141.928,452.565 157.091,426.849 "
   id="polygon791"
   style="fill:#ffffff" />
			<path
   fill="#96bedc"
   d="m 452.65,156.601 c -0.59,-14.746 -8.574,-28.245 -21.08,-36.104 L 256.28,19.692 c -12.371,-6.229 -27.825,-6.237 -40.218,-0.004 -1.465,0.739 -170.465,98.752 -170.465,98.752 -2.339,1.122 -4.592,2.458 -6.711,3.975 -11.164,8.001 -17.969,20.435 -18.668,34.095 V 365.275 L 50.333,319.004 50.07,157.921 c 0.035,-0.589 0.109,-1.169 0.214,-1.741 0.681,-3.79 2.797,-7.171 5.983,-9.456 0.795,-0.569 172.682,-100.064 173.228,-100.337 4.04,-2.029 9.175,-2.053 13.22,-0.063 l 173.022,99.523 c 4.093,2.607 6.659,7.027 6.887,11.859 v 199.542 c -0.209,4.231 -1.882,8.152 -5.172,10.825 l -33.544,19.438 -17.308,10.031 -61.864,35.852 -62.737,36.357 c -3.379,1.221 -7.33,1.152 -10.681,-0.21 l -74.228,-42.693 -15.163,25.717 66.706,38.406 c 2.206,1.255 4.171,2.367 5.784,3.272 2.497,1.4 4.199,2.337 4.8,2.629 4.741,2.303 11.563,3.643 17.71,3.643 5.636,0 11.132,-1.035 16.332,-3.072 L 435.484,391.912 c 10.459,-8.104 16.612,-20.325 17.166,-33.564 z"
   id="path793"
   style="fill:#ffffff" />
		</g>
</svg>
