<svg width="24" height="24" viewBox="0 0 24 24" fill="none" xmlns="http://www.w3.org/2000/svg">
<path d="M12.1674 23.9998H11.2085C11.196 23.9917 11.184 23.9774 11.171 23.9764C10.8807 23.9521 10.5899 23.9339 10.3002 23.9046C10.0784 23.8821 9.85568 23.8582 9.63772 23.8129C9.27583 23.738 8.91582 23.6526 8.55821 23.559C7.87127 23.3792 7.21225 23.1202 6.57637 22.8037C6.28456 22.6585 6.00183 22.4936 5.71996 22.3289C5.02856 21.9249 4.39851 21.435 3.81146 20.8902C3.55992 20.6567 3.32123 20.4067 3.09522 20.1479C2.8238 19.8371 2.56489 19.5145 2.31369 19.1867C1.94357 18.7038 1.63445 18.1797 1.35567 17.6386C1.01879 16.9847 0.735377 16.3069 0.532841 15.5976C0.430373 15.2384 0.331675 14.8766 0.260736 14.5102C0.178831 14.0879 0.119201 13.6605 0.0693375 13.2328C0.030955 12.9038 0.0150194 12.5713 0.00285354 12.2399C-0.00537129 12.0161 0.00576649 11.7913 0.0162189 11.5673C0.0287275 11.2986 0.0405506 11.0292 0.0693375 10.7621C0.106863 10.4132 0.140619 10.0616 0.212587 9.71911C0.312655 9.24206 0.433971 8.76848 0.569338 8.30028C0.718756 7.78336 0.924034 7.28569 1.1509 6.79859C1.37451 6.3186 1.63171 5.85663 1.9165 5.41113C2.2861 4.83303 2.70351 4.29115 3.16581 3.78672C3.39422 3.53762 3.63754 3.30118 3.88737 3.0741C4.15862 2.82725 4.43878 2.58942 4.72682 2.36286C5.21911 1.97578 5.74772 1.64348 6.29913 1.34948C6.93432 1.01094 7.59368 0.728562 8.28234 0.522455C8.642 0.414807 9.00595 0.317214 9.37333 0.242849C9.75458 0.16571 10.1413 0.11232 10.5277 0.0665568C10.8418 0.029461 11.1588 0.00484596 11.4748 0.000685675C11.832 -0.00416799 12.1898 0.0178468 12.5473 0.0320611C12.7169 0.0388216 12.8872 0.0461021 13.0551 0.0684636C13.3485 0.107293 13.6405 0.15739 13.933 0.20402C14.4193 0.281505 14.8951 0.405273 15.3636 0.55539C16.0474 0.774498 16.7118 1.04457 17.3403 1.39733C17.6394 1.5653 17.939 1.73431 18.2279 1.91927C18.7498 2.25365 19.2364 2.63779 19.6939 3.05693C19.953 3.29424 20.2003 3.54646 20.4359 3.80769C20.703 4.10359 20.9602 4.40972 21.2058 4.72417C21.6009 5.23051 21.9431 5.77447 22.2388 6.34546C22.428 6.7107 22.5964 7.08773 22.758 7.46631C22.9655 7.95255 23.1343 8.45421 23.2551 8.96974C23.3566 9.40258 23.4436 9.83924 23.5262 10.2762C23.5637 10.4747 23.5795 10.6781 23.5971 10.8798C23.6144 11.0767 23.6211 11.2745 23.634 11.4718C23.6348 11.485 23.6491 11.4971 23.6571 11.5098V12.4798C23.6491 12.4925 23.635 12.5046 23.634 12.5178C23.6264 12.6235 23.6223 12.7296 23.6153 12.8353C23.6045 12.9952 23.5999 13.156 23.5788 13.3146C23.5392 13.6142 23.5044 13.9156 23.441 14.2105C23.341 14.6759 23.2318 15.1401 23.1031 15.5981C22.9614 16.1022 22.7764 16.5926 22.5447 17.0622C22.3512 17.4541 22.1609 17.8493 21.9383 18.2245C21.7162 18.5987 21.4693 18.9603 21.2083 19.3082C20.9606 19.6384 20.6933 19.9563 20.4109 20.2568C20.1252 20.5606 19.8165 20.8432 19.5068 21.1224C19.292 21.3162 19.0623 21.4943 18.8319 21.6693C18.3649 22.0238 17.8685 22.3319 17.3514 22.6054C16.7332 22.9325 16.0937 23.2107 15.4249 23.4132C15.0736 23.5196 14.7181 23.6132 14.3608 23.6963C14.0754 23.7625 13.7851 23.8084 13.4955 23.8551C13.2758 23.8904 13.0546 23.9183 12.8331 23.939C12.6244 23.9584 12.4145 23.9636 12.2052 23.9767C12.1922 23.9776 12.1802 23.992 12.1677 24.0001L12.1674 23.9998ZM20.0085 10.1658C19.8709 9.54351 19.6682 8.95951 19.3984 8.40186C18.6909 6.94004 17.6715 5.75314 16.3053 4.88468C15.0999 4.11833 13.7781 3.70143 12.3584 3.64319C9.97425 3.54542 7.89457 4.32911 6.20677 6.03067C4.33836 7.91441 3.52222 10.2242 3.81095 12.8863C4.05289 15.1166 5.0481 16.9694 6.77411 18.3824C8.67542 19.9388 10.8644 20.5185 13.2769 20.1375C15.5517 19.7782 17.3567 18.6121 18.6929 16.7197C19.3331 15.8132 19.7604 14.8033 20.0099 13.6873C19.6859 13.6873 19.3848 13.6873 19.0839 13.6873C18.6494 13.6873 18.2147 13.6852 17.7801 13.6875C17.2671 13.6903 16.7542 13.6974 16.2412 13.7008C16.1917 13.7012 16.1694 13.7173 16.1472 13.7643C16.0562 13.9553 15.969 14.1498 15.8598 14.3303C15.5824 14.7891 15.2339 15.1869 14.82 15.5262C14.4073 15.8644 13.9516 16.1233 13.4522 16.3064C13.1206 16.4279 12.7793 16.505 12.4302 16.539C12.2229 16.5593 12.012 16.5532 11.8031 16.5447C11.5918 16.5363 11.38 16.518 11.1705 16.49C10.7835 16.438 10.4169 16.3116 10.0656 16.1428C9.42062 15.8328 8.8723 15.3969 8.42113 14.8359C8.09265 14.4279 7.84522 13.9751 7.66376 13.4821C7.46397 12.939 7.42781 12.3723 7.41805 11.8027C7.41479 11.6159 7.44495 11.4279 7.46585 11.2411C7.51109 10.8367 7.63223 10.4524 7.79776 10.0843C8.10979 9.39131 8.56301 8.80419 9.15228 8.33113C9.53765 8.02188 9.96209 7.77903 10.4302 7.61383C10.8247 7.47463 11.2255 7.36681 11.642 7.34515C12.0017 7.32642 12.3612 7.34185 12.7189 7.40738C13.2649 7.50757 13.7781 7.69357 14.2589 7.9704C14.704 8.22678 15.0983 8.5499 15.4199 8.95362C15.5807 9.15539 15.7222 9.3745 15.8559 9.59586C15.9436 9.7413 16.0025 9.90459 16.0726 10.0606C16.0961 10.1131 16.1192 10.1502 16.1893 10.1481C16.2993 10.1448 16.4098 10.1596 16.5202 10.1624C16.8372 10.1702 17.1544 10.1818 17.4715 10.1811C18.0557 10.1799 18.6398 10.1702 19.2239 10.1653C19.4775 10.1632 19.7311 10.165 20.0084 10.165L20.0085 10.1658Z" fill="white"/>
</svg>
