<svg width="16" height="16" viewBox="0 0 16 16" fill="none" xmlns="http://www.w3.org/2000/svg">
<path d="M10.2887 10.4542C12.9364 7.80646 14.0286 4.60581 12.7282 3.30536C11.4277 2.00492 8.22709 3.09712 5.57934 5.74488C2.93158 8.39263 1.83938 11.5933 3.13982 12.8937C4.44027 14.1942 7.64092 13.102 10.2887 10.4542Z" stroke="white" stroke-width="0.5" stroke-miterlimit="10"/>
<path d="M9.63437 9.79405C12.2821 7.1463 13.3743 3.94565 12.0739 2.64521C10.7734 1.34476 7.5728 2.43697 4.92504 5.08472C2.27729 7.73248 1.18508 10.9331 2.48553 12.2336C3.78597 13.534 6.98662 12.4418 9.63437 9.79405Z" stroke="white" stroke-width="0.5" stroke-miterlimit="10"/>
<path d="M2.39844 12.1484L3.15845 12.9084" stroke="white" stroke-width="0.5" stroke-miterlimit="10"/>
<path d="M11.9785 2.55859L12.7285 3.30859" stroke="white" stroke-width="0.5" stroke-miterlimit="10"/>
</svg>
