<svg width="19" height="23" viewBox="0 0 19 23" fill="none" xmlns="http://www.w3.org/2000/svg">
    <path
        d="M1.24828 1.21354L0 2.42371L1.57932 3.95476L3.16211 5.48588L3.03107 5.86028C2.86208 6.35171 2.79312 6.76291 2.79312 7.30787C2.79312 9.08298 3.75177 10.5941 5.44833 11.4933C6.13109 11.8543 7.30348 12.2622 8.60344 12.5865C11.1414 13.2183 11.5311 13.3286 12.031 13.5559C12.7138 13.8702 13.0518 14.2112 13.1931 14.726C13.2552 14.95 13.2518 15.4514 13.1897 15.6921C13.031 16.2772 12.5173 16.8655 11.8793 17.1865C11.0172 17.6244 9.51727 17.7447 8.38623 17.464C7.96556 17.3637 7.36896 17.0795 7.069 16.8421C6.45866 16.3541 5.98277 15.5116 5.77244 14.5388C5.73796 14.385 5.71035 14.2546 5.70695 14.248C5.69655 14.2346 2.16552 14.5689 2.14831 14.589C2.13451 14.599 2.14484 14.7394 2.16898 14.8998C2.27935 15.6721 2.55864 16.5914 2.87935 17.2299L3.06554 17.601L1.53104 19.0886L0 20.5763L1.25175 21.7898L2.50002 23L5.66207 19.9344L5.93449 20.0448C7.3759 20.6331 9.53794 20.817 11.6345 20.5228C12.1379 20.4526 12.8655 20.2855 13.2483 20.1484L13.4759 20.0682L14.9897 21.5357L16.5 23L19 20.5763L17.5966 19.2157L16.1966 17.8584L16.3725 17.5108C16.738 16.7987 16.8897 16.1936 16.9207 15.3612C16.9759 13.7732 16.5517 12.5764 15.5862 11.5902C14.5793 10.5639 13.4448 10.0759 10.2414 9.29362C7.98277 8.74536 7.01038 8.36759 6.62419 7.89285C6.24139 7.42482 6.20691 6.76963 6.54142 6.29158C6.73449 6.01409 7.21038 5.71656 7.72761 5.54943C8.31034 5.35883 9.28966 5.27194 10.0172 5.34552C11.5517 5.50262 12.3241 6.13777 12.6621 7.52846C12.7035 7.69895 12.7414 7.84274 12.7449 7.8494C12.7517 7.85942 15.2483 7.77253 15.9966 7.73574L16.4241 7.7157L16.4 7.42482C16.3517 6.83312 16.2311 6.30497 16.0103 5.75335L15.8897 5.44243L17.4448 3.93136L19 2.42371L17.7517 1.21018L16.5 0L13.3517 3.05214L12.969 2.91178C12.0276 2.5708 11.1173 2.42035 9.77589 2.38357C8.31034 2.34678 7.02418 2.53065 6.03793 2.91844L5.6724 3.06223L4.08621 1.53111L2.50002 0L1.24828 1.21354Z"
        fill="white" />
</svg>