<svg width="800" height="800" viewBox="0 0 800 800" fill="none" xmlns="http://www.w3.org/2000/svg">
<path d="M360.067 592.333C363.144 592.338 366.19 592.948 369.032 594.13C371.873 595.311 374.454 597.041 376.627 599.22C378.8 601.399 380.522 603.985 381.696 606.83C382.869 609.675 383.471 612.723 383.467 615.8C383.462 618.877 382.852 621.924 381.67 624.765C380.488 627.606 378.759 630.187 376.58 632.36C374.401 634.533 371.815 636.255 368.97 637.429C366.125 638.603 363.077 639.204 360 639.2C353.785 639.191 347.828 636.714 343.44 632.313C339.052 627.912 336.591 621.948 336.6 615.733C336.609 609.518 339.086 603.562 343.487 599.173C347.888 594.785 353.852 592.325 360.067 592.333ZM727.533 447.433C724.456 447.431 721.409 446.823 718.567 445.643C715.725 444.464 713.143 442.736 710.968 440.558C708.794 438.381 707.07 435.796 705.894 432.952C704.718 430.108 704.114 427.061 704.117 423.983C704.119 420.906 704.727 417.859 705.907 415.017C707.086 412.175 708.814 409.593 710.992 407.418C713.169 405.244 715.754 403.52 718.598 402.344C721.442 401.168 724.489 400.564 727.567 400.567C733.782 400.571 739.74 403.044 744.132 407.442C748.523 411.84 750.988 417.802 750.983 424.017C750.979 430.232 748.506 436.19 744.108 440.582C739.71 444.973 733.748 447.438 727.533 447.433ZM727.533 351.567C708.319 351.584 689.897 359.225 676.311 372.811C662.725 386.397 655.084 404.819 655.067 424.033C655.067 431.8 656.367 439.533 658.9 447.067L419.533 574.5C412.896 564.863 404.015 556.984 393.655 551.543C383.296 546.102 371.768 543.262 360.067 543.267C332.433 543.267 307.267 559.1 295.067 583.8L80.0333 470.4C57.3 458.467 40.3 421.067 42.1 387C43.0333 369.233 49.1667 355.433 58.5333 350.1C64.4667 346.767 71.6 347.033 79.2 351L80.6 351.767C137.6 381.767 324.067 480 331.933 483.633C344.033 489.267 350.767 491.533 371.433 481.733L756.9 281.267C762.567 279.133 769.167 273.7 769.167 265.467C769.167 254.067 757.367 249.567 757.333 249.567C735.4 239.067 701.7 223.3 668.833 207.9C598.567 175 518.933 137.733 483.967 119.4C453.767 103.6 429.467 116.933 425.133 119.6L416.733 123.767C259.333 201.6 48.6667 305.933 36.6667 313.233C15.2333 326.3 1.93333 352.333 0.199998 384.633C-2.46667 435.867 23.6333 489.3 61 508.867L288.4 626.133C290.905 643.359 299.524 659.109 312.682 670.504C325.841 681.9 342.66 688.181 360.067 688.2C379.078 688.168 397.317 680.676 410.862 667.337C424.407 653.997 432.177 635.875 432.5 616.867L682.967 481.1C695.633 491.033 711.4 496.467 727.533 496.467C746.747 496.449 765.169 488.808 778.755 475.222C792.342 461.636 799.982 443.214 800 424C799.982 404.786 792.342 386.364 778.755 372.778C765.169 359.191 746.747 351.551 727.533 351.533" fill="#A3A3A3"/>
</svg>
