<svg width="24" height="24" viewBox="0 0 24 24" fill="none" xmlns="http://www.w3.org/2000/svg">
<path d="M1.30229 17.4415L1.11472 17.0814H4.25877L4.33614 17.1906C5.48465 18.8771 7.15924 20.1365 9.09794 20.7728C11.0366 21.409 13.131 21.3863 15.0555 20.7083C16.9799 20.0303 18.6258 18.735 19.7375 17.024C20.8493 15.3131 21.364 13.2825 21.2017 11.2486L15.5888 11.239L17.2277 15.8738L15.2207 18.6311L11.623 8.42098L23.4665 8.4438L23.5181 8.62385C23.6534 9.07374 23.7589 9.53211 23.8335 9.99594C23.9472 10.6587 24.0022 11.33 23.9999 12.0024C23.996 14.8365 22.9911 17.5781 21.1618 19.7427C19.3326 21.9074 16.7976 23.356 14.0039 23.8325C13.3305 23.9416 12.6487 23.9976 11.9665 24C9.75592 24.0016 7.58836 23.3893 5.70536 22.2312C3.82237 21.0732 2.29819 19.4151 1.30229 17.4415V17.4415ZM3.32095 15.525H0.509828L0.461765 15.345C0.333722 14.9009 0.234595 14.449 0.165178 13.9921C-0.308233 11.1667 0.243656 8.26522 1.72196 5.81136C3.20027 3.3575 5.50793 1.51301 8.22693 0.610896C10.9459 -0.291215 13.897 -0.191503 16.5489 0.892024C19.2009 1.97555 21.3788 3.97148 22.6882 6.5195L22.8745 6.87964H19.7117L19.6344 6.7704C18.4837 5.08716 16.8092 3.83094 14.8714 3.19681C12.9336 2.56268 10.8405 2.58614 8.9174 3.26352C6.99427 3.9409 5.34799 5.23431 4.23533 6.94291C3.12266 8.65151 2.6059 10.6797 2.76412 12.7125L8.40043 12.7221L6.76159 8.08724L8.7779 5.32989L12.3651 15.5401L3.32095 15.525Z" fill="white"/>
</svg>
