<svg width="20" height="20" viewBox="0 0 20 20" fill="none" xmlns="http://www.w3.org/2000/svg">
<path fill-rule="evenodd" clip-rule="evenodd" d="M4.76954 1.08148C8.21766 0.696105 11.7824 0.696105 15.2305 1.08148C17.1289 1.29366 18.6601 2.78944 18.8829 4.69449C19.2952 8.21949 19.2952 11.7805 18.8829 15.3055C18.6601 17.2106 17.1289 18.7064 15.2305 18.9185C11.7824 19.3039 8.21766 19.3039 4.76954 18.9185C2.87114 18.7064 1.33995 17.2106 1.11713 15.3055C0.704852 11.7805 0.704852 8.21949 1.11713 4.69449C1.33995 2.78944 2.87114 1.29366 4.76954 1.08148ZM14.4106 6.98006L15.25 6.17713L15.2493 6H12.3476L10.2794 11.1601L7.92657 6.00065H4.88285V6.17713L5.86356 7.35776C5.91097 7.40044 5.94765 7.4537 5.97062 7.51322C5.99359 7.57273 6.0022 7.63682 5.99575 7.70029V12.3414C6.00982 12.4239 6.00431 12.5086 5.97965 12.5885C5.95499 12.6685 5.91188 12.7416 5.85379 12.8018L4.75 14.14V14.3159H7.87708V14.14L6.77394 12.8018C6.71538 12.7416 6.67128 12.6689 6.64499 12.5891C6.61871 12.5093 6.61091 12.4246 6.62221 12.3414V8.32805L9.36703 14.3165H9.68612L12.0435 8.32805V13.1014C12.0435 13.2277 12.0435 13.2525 11.9601 13.3358L11.1116 14.1589V14.3348H15.2292V14.1589L14.4106 13.3553C14.3752 13.3283 14.3478 13.2921 14.3314 13.2507C14.315 13.2093 14.3102 13.1642 14.3175 13.1203V7.21515C14.3102 7.1712 14.315 7.1261 14.3314 7.08469C14.3478 7.04328 14.3752 7.00711 14.4106 6.98006Z" fill="#a3a3a3"/>
</svg>
