<svg width="30" height="29" viewBox="0 0 30 29" fill="none" xmlns="http://www.w3.org/2000/svg">
<path d="M27.5954 1.32251L16.4914 9.56126L18.5539 4.70051M27.5954 1.32251L18.5539 4.70051M27.5954 1.32251L29.0001 5.54779L28.0636 10.0964L28.6544 10.5423L27.7626 11.2224L28.4426 11.7575L27.5507 12.5714L28.1082 12.9727L26.8261 14.4778M27.5954 1.32251L16.8705 9.28255M18.5539 4.70051L16.8705 9.28255M18.5539 4.70051L11.0287 4.70051M1.98725 1.32251L12.9908 9.6393L11.0287 4.70051M1.98725 1.32251L11.0287 4.70051M1.98725 1.32251L12.7121 9.28255M1.98725 1.32251L0.58252 5.54779L1.53014 10.0964L0.928124 10.5423L1.82 11.2224L1.13994 11.7575L2.03183 12.5714L1.4744 12.9727L2.75648 14.4778M11.0287 4.70051L12.7121 9.28255M20.6499 24.9462L23.6042 20.4199L28.7772 20.5202M20.6499 24.9462L26.9711 26.6854L28.7772 20.5202M20.6499 24.9462L16.8705 23.1067M20.6499 24.9462L20.1259 20.5648M20.6499 24.9462L17.1382 26.6073L17.1716 25.5705M20.6499 24.9462L20.1036 20.4199L23.6042 20.5202M20.6499 24.9462L23.6042 20.5202M20.6499 24.9462L19.4235 25.9496L16.9263 27.6776H12.6564L10.1591 25.9496L8.93276 24.9462M28.7772 20.5202L23.6042 20.5202M28.7772 20.5202L26.8261 14.4778M0.816645 20.5202L2.61156 26.6854L8.93276 24.9462M0.816645 20.5202L5.98955 20.4199L8.93276 24.9462M0.816645 20.5202L2.75648 14.4778M0.816645 20.5202L5.98957 20.5202M8.93276 24.9462L12.7121 23.1067M8.93276 24.9462L9.45675 20.5648M8.93276 24.9462L12.4446 26.6073L12.4223 25.5705M8.93276 24.9462L9.47905 20.4199L5.98957 20.5202M8.93276 24.9462L5.98957 20.5202M8.58716 12.772L6.8257 15.4365M8.58716 12.772L12.8793 8.97039L13.0912 15.7152M8.58716 12.772L2.75648 14.4778M8.58716 12.772L12.7121 9.28255M6.8257 15.4365L13.0912 15.7152M6.8257 15.4365L9.36755 18.0118M6.8257 15.4365L9.45675 20.5648M13.0912 15.7152L12.5114 18.9372M13.0912 15.7152L13.4033 17.7331L13.2472 22.7388M13.0912 15.7152L12.7121 9.28255M13.0912 15.7152L13.2361 17.7443L13.2472 22.7388M20.9955 12.772L16.6364 8.89235L16.4915 15.7152M20.9955 12.772L22.757 15.4365M20.9955 12.772L16.8705 9.28255M20.9955 12.772L26.8261 14.4778M16.4915 15.7152L22.757 15.4365M16.4915 15.7152L17.0712 18.9372M16.4915 15.7152L16.1904 17.722L16.3354 22.7388M16.4915 15.7152L16.8705 9.28255M16.4915 15.7152L16.3465 17.7443L16.3354 22.7388M22.757 15.4365L20.2262 18.0118M22.757 15.4365L20.1259 20.5648M12.7121 23.1067L9.45675 20.5648M12.7121 23.1067L12.4223 25.5705M12.7121 23.1067L13.2472 22.7388M9.45675 20.5648L9.36755 18.0118M9.45675 20.5648L5.98957 20.5202M16.8705 23.1067L20.1259 20.5648M16.8705 23.1067L17.1716 25.5705M16.8705 23.1067L16.3354 22.7388M20.1259 20.5648L20.2262 18.0118M20.1259 20.5648L23.6042 20.5202M17.1716 25.5705L16.8928 25.3253H12.6898L12.4223 25.5705M12.5114 18.9372L9.36755 18.0118M12.5114 18.9372L11.5861 16.9973L9.36755 18.0118M12.5114 18.9372L13.2472 22.7388M17.0712 18.9372L17.9965 16.9973L20.2262 18.0118M17.0712 18.9372L20.2262 18.0118M17.0712 18.9372L16.3354 22.7388M13.2472 22.7388H16.3354" stroke="white" stroke-width="0.994531" stroke-linecap="round" stroke-linejoin="round"/>
</svg>
