<svg width="24" height="25" viewBox="0 0 24 25" fill="none" xmlns="http://www.w3.org/2000/svg">
<g clip-path="url(#clip0_785_164)">
<path d="M23.9833 11.9485C23.9205 11.8139 23.7968 11.8699 23.7013 11.8989C22.934 12.1329 22.2398 11.9911 21.5738 11.5496C20.9693 11.1494 20.3245 11.063 19.6847 11.4929C19.3078 11.7462 18.9232 11.743 18.5335 11.547C17.8694 11.2126 17.2643 10.7414 16.4265 10.715C16.5778 10.579 16.6874 10.5449 16.8008 10.514C17.1598 10.4153 17.5188 10.4617 17.8809 10.494C18.7136 10.5681 19.445 10.4102 19.8245 9.54788C20.0597 9.01297 20.4911 8.94852 20.995 9.00459C21.5116 9.06195 21.9904 8.9685 22.3853 8.59664L22.5122 8.47032C22.593 8.42199 22.6564 8.35883 22.6847 8.26602C22.7379 8.22478 22.7738 8.17386 22.7814 8.10555C22.9135 7.95797 22.9667 7.77236 23.0205 7.58933C23.0494 7.49201 23.0193 7.39018 22.9295 7.3354C22.8218 7.26967 22.7526 7.3412 22.6994 7.43079C22.6334 7.46365 22.5597 7.48686 22.5032 7.53197C22.061 7.88707 21.5552 7.99857 21.002 7.94185C20.7796 7.9193 20.5623 7.84905 20.3354 7.87225C20.2713 7.84067 20.2052 7.8368 20.1366 7.85743C19.7328 7.84261 19.361 7.91994 19.0719 8.23316C19.0533 8.25507 19.0341 8.27698 19.0155 8.29889C19.0271 8.31178 19.0392 8.32403 19.0514 8.33627C19.0392 8.32403 19.0277 8.31114 19.0155 8.29889C18.795 8.51286 18.6418 8.7932 18.3745 8.96206C18.3598 8.96012 18.3482 8.96592 18.3405 8.97946C17.8079 9.09997 17.2816 9.04004 16.7534 8.93886C16.5464 8.8989 16.3316 8.86281 16.1278 8.96721C16.1156 8.96141 16.106 8.96463 16.0996 8.97688C16.0303 9.04713 15.9611 9.09675 15.8912 9.12897C15.8566 9.14509 15.822 9.15669 15.7874 9.16378C15.822 9.15669 15.8566 9.14509 15.8912 9.12897C15.9605 9.09675 16.0297 9.04713 16.0996 8.97688C15.9541 9.0033 15.8092 9.02973 15.6637 9.05615C15.6425 9.03811 15.622 9.02006 15.6009 9.00201C15.8053 8.72231 16.0925 8.57022 16.4117 8.46388C16.6643 8.3801 16.9239 8.31243 17.1656 8.2048C17.7271 7.9541 18.1226 7.5513 18.154 6.90167C18.1828 6.29909 18.4989 5.9659 19.0469 5.79898C19.1982 5.75322 19.3431 5.67911 19.4828 5.60306C20.2732 5.17513 20.4488 4.4082 20.4155 3.67157C20.4116 3.58585 20.4001 3.49563 20.293 3.47049C20.1854 3.44536 20.1437 3.52141 20.0995 3.59874C20.0161 3.74762 19.9283 3.89456 19.8424 4.04214C19.8033 4.08983 19.7642 4.13752 19.7245 4.18586C19.3783 4.53839 18.9649 4.75493 18.4796 4.8574C18.0521 4.94827 17.6348 5.08361 17.3271 5.42969L17.3111 5.44323C16.9867 5.7036 16.972 6.09995 16.8701 6.45827C16.8098 6.64131 16.7207 6.80242 16.5406 6.89329C16.0643 7.12273 15.5445 7.2252 15.0509 7.40243L15.0464 7.39985C14.6752 7.43916 14.4573 7.82005 14.0631 7.88256C14.2169 7.41467 14.5304 7.11435 14.8605 6.85527C15.6361 6.24689 15.9233 5.50639 15.6073 4.5487C15.5252 4.29993 15.5848 4.05761 15.7586 3.85718C15.9124 3.67995 16.0784 3.51238 16.2374 3.33966C16.4547 3.10379 16.6733 2.86791 16.7387 2.53601C16.7521 2.52698 16.756 2.51474 16.7508 2.49927C16.9752 1.95598 16.8258 1.45136 16.588 0.957688C16.5515 0.880996 16.4976 0.795281 16.397 0.814615C16.2919 0.834594 16.2451 0.922242 16.2316 1.02665C16.2105 1.18519 16.1887 1.34437 16.1669 1.50291L16.1637 1.5158L16.1496 1.52869L16.1553 1.54674C15.9835 2.12805 15.597 2.54438 15.1272 2.89691C15.1034 2.92527 15.0804 2.95362 15.0573 2.98134C15.0605 2.97683 15.0663 2.96974 15.0663 2.96974L15.0515 2.95814C14.9746 2.98843 14.9156 3.03934 14.8778 3.1141H14.8791C14.8586 3.13537 14.8381 3.15663 14.8176 3.1779C14.7528 3.20046 14.7176 3.25073 14.6919 3.31066C14.3086 3.67672 14.2297 4.13817 14.3086 4.63312C14.3656 4.99145 14.3022 5.30918 14.0881 5.59855C14.0073 5.69071 13.9272 5.78287 13.8464 5.87503C13.8548 5.8834 13.8625 5.89114 13.8708 5.89952C13.8625 5.89178 13.8548 5.8834 13.8464 5.87503C13.7182 5.98136 13.5894 6.08835 13.4612 6.19468C13.3567 6.234 13.2753 6.30425 13.208 6.39189C13.217 6.40027 13.2266 6.40929 13.2355 6.41767C13.2266 6.40929 13.217 6.40027 13.208 6.39189C13.015 6.49888 12.8689 6.65291 12.7593 6.84303C12.6272 6.96419 12.5349 7.10919 12.5009 7.28836L12.4977 7.29416C12.4548 7.32574 12.4118 7.35796 12.3683 7.3889C12.367 7.27289 12.3651 7.15688 12.3638 7.04088C12.3958 6.78373 12.4804 6.54335 12.5894 6.3094C12.7067 6.05741 12.8349 5.80864 12.924 5.54699C13.1086 5.00305 13.1266 4.45525 12.7138 4.00669C12.2843 3.5401 12.2727 3.0793 12.5727 2.54761C12.7727 2.19314 12.9131 1.80775 12.8291 1.3824C12.8272 1.35662 12.8247 1.33148 12.8227 1.3057C12.8054 1.03245 12.7003 0.795925 12.5285 0.586471C12.4439 0.367994 12.2599 0.233944 12.1029 0.0773364C12.0394 0.0141779 11.9651 -0.0348021 11.8772 0.0277119C11.7914 0.0889369 11.8196 0.175296 11.8394 0.261012C11.8856 0.457576 11.9253 0.65543 11.9676 0.852639C11.9651 1.02794 11.9619 1.20323 11.9593 1.37917C11.8862 1.7897 11.6555 2.12676 11.4542 2.47736C11.0959 3.10314 10.9856 3.73602 11.4112 4.37662C11.6856 4.78973 11.6484 5.20091 11.4305 5.61788C11.3516 5.76933 11.2689 5.91821 11.1875 6.06837C10.9241 6.55688 10.6478 7.04088 10.6747 7.62606C10.7651 7.62413 10.8555 7.62219 10.9459 7.62026C10.9734 7.08019 11.1824 6.61746 11.4875 6.17471C11.9106 5.56052 12.0138 4.91605 11.608 4.22388C11.2638 3.63677 11.3311 3.22881 11.7689 2.6997C11.8157 2.64299 11.8522 2.5779 11.8939 2.51667L11.8901 2.5012C11.9055 2.4722 11.9215 2.44385 11.9369 2.41484C12.2535 1.97789 12.2901 1.47327 12.2702 0.949954C12.4824 0.956399 12.424 1.16199 12.5151 1.24641C12.6234 1.62665 12.5349 1.98562 12.3933 2.33751C12.3336 2.48574 12.2612 2.62945 12.2022 2.77833C12.0048 3.27586 12.026 3.75084 12.4144 4.14719C12.8747 4.61766 12.8516 5.12615 12.6086 5.68297C12.4343 6.08255 12.1683 6.4441 12.1029 6.89007L12.1016 6.89845C11.9875 7.34056 12.0522 7.77042 12.1939 8.19384C12.1869 8.21769 12.1798 8.24153 12.1728 8.26538C11.7933 8.23251 11.4196 8.27956 11.0471 8.35045C11.0452 8.33498 11.0362 8.3266 11.0209 8.32467C10.9933 8.13649 10.9657 7.9483 10.9382 7.75947C10.9414 7.71307 10.9439 7.66731 10.9471 7.62091C10.8568 7.62284 10.7664 7.62477 10.676 7.62671C10.6625 7.66537 10.6497 7.70404 10.6363 7.74271C10.6055 7.70275 10.5741 7.66344 10.5433 7.62348L10.5337 7.60608C10.3734 7.17428 10.3625 6.72831 10.4177 6.27718C10.5286 5.3704 10.3343 4.61379 9.42731 4.19553C9.04848 4.02087 8.91451 3.70444 8.94592 3.30228C8.95681 3.16372 8.97412 3.02452 8.97668 2.88595C8.99655 1.91538 8.45683 1.3115 7.61967 1.01376C7.50685 0.9738 7.40942 0.976378 7.33314 1.07563C7.26583 1.16263 7.31647 1.24126 7.3716 1.30699C7.92671 1.96822 7.99658 2.72097 7.84787 3.54396C7.71967 4.25482 7.88505 4.88318 8.54144 5.30789C8.84848 5.50639 8.97861 5.8138 9.0004 6.18115C9.02155 6.53883 8.98822 6.89201 8.91258 7.23487C8.80553 7.72209 8.90681 8.16742 9.09591 8.60695C9.07604 8.60695 9.06002 8.6134 9.04655 8.62822C8.66259 8.30792 8.45426 7.88707 8.33503 7.40887C8.23888 7.02348 8.10491 6.65355 7.79402 6.37965C7.51326 6.01617 7.11007 5.92272 6.68892 5.895C6.39598 5.87567 6.18766 5.74613 6.02484 5.51154C5.90689 5.3414 5.84856 5.14677 5.77677 4.95665C5.43191 4.0415 4.77487 3.59874 3.80823 3.62968C3.68324 3.63354 3.53068 3.60519 3.49734 3.77855C3.46657 3.93774 3.61913 3.96416 3.71593 4.01378C4.33194 4.32958 4.72936 4.78973 4.85308 5.50381C4.99474 6.31713 5.42742 6.88878 6.29919 7.05119C6.61072 7.10919 6.81007 7.34249 6.93443 7.65635C7.22032 8.37494 7.27929 9.18891 7.81902 9.80181C7.82415 9.80761 7.80364 9.83596 7.79402 9.85659C7.6921 9.89526 7.61582 9.80503 7.52224 9.79858C7.52224 9.80052 7.52352 9.80181 7.52416 9.80309C7.48249 9.77925 7.44019 9.7554 7.39852 9.73156H7.3998C7.02545 9.44155 6.7761 9.02973 6.42291 8.71973C6.40303 8.69847 6.38252 8.67655 6.36265 8.65529C6.30047 8.55991 6.21201 8.49804 6.10753 8.45872C6.03702 8.35818 5.9242 8.3208 5.81972 8.27698C5.37165 8.08944 4.93641 8.20738 4.50373 8.34658L4.4236 8.37494C4.22361 8.4091 4.05374 8.29631 3.86849 8.25893C3.83259 8.16549 3.75118 8.11908 3.6717 8.07139V8.07268C3.6499 8.04948 3.62747 8.02693 3.60567 8.00372L3.61272 8.01081C3.58965 7.98761 3.56721 7.96377 3.54414 7.94057C3.54542 7.94057 3.5467 7.94185 3.54798 7.9425C3.50375 7.89932 3.45888 7.85614 3.41465 7.81231C3.41465 7.81296 3.41529 7.8136 3.41593 7.81489C3.39414 7.79427 3.37235 7.77365 3.35055 7.75302H3.35119C3.29542 7.64926 3.22363 7.56613 3.09735 7.55259C2.98069 7.35667 2.7839 7.29094 2.58198 7.23293C2.18392 6.98997 1.77495 7.06086 1.36407 7.19298C1.23779 7.2426 1.10895 7.28642 0.985871 7.34314C0.910232 7.37794 0.832029 7.4295 0.848055 7.53261C0.865362 7.64282 0.945488 7.67826 1.04933 7.69631C1.27561 7.73562 1.49996 7.78782 1.72495 7.83423C2.21981 8.05013 2.58903 8.4091 2.89095 8.85056C3.03069 9.05422 3.20632 9.22822 3.40376 9.37839C3.71464 9.61491 4.06784 9.75927 4.45116 9.66711C5.09794 9.51179 5.55113 9.79278 5.92484 10.2665C6.31906 10.7659 6.66521 11.3105 7.37801 11.5876C7.0184 11.6398 6.76905 11.6166 6.53188 11.5135C6.24855 11.3891 5.97356 11.2467 5.68959 11.1249C5.02871 10.842 4.4095 10.8536 3.84862 11.375C3.41978 11.7733 3.10248 11.7546 2.52237 11.4143C1.69675 10.9303 0.649342 11.1088 0.0839723 11.8693C0.0333327 11.9369 -0.0346142 12.0033 0.0166664 12.0987C0.0788443 12.2141 0.169867 12.1741 0.265378 12.1458C1.05254 11.9105 1.7647 12.053 2.45378 12.5086C3.04223 12.8979 3.68195 12.9874 4.31078 12.5479C4.69475 12.2792 5.08897 12.303 5.48767 12.5105C5.64857 12.5943 5.80818 12.6807 5.96651 12.7696C6.44214 13.0364 6.9152 13.311 7.48506 13.3058C7.55364 13.3058 7.58121 13.3348 7.56326 13.4031C7.50172 13.4328 7.44019 13.4631 7.37865 13.4934C7.34404 13.5108 7.30942 13.5282 7.27481 13.5456C7.24468 13.5481 7.21455 13.5507 7.18378 13.5533C7.12096 13.5449 7.06071 13.5475 7.01263 13.5978C6.98571 13.6003 6.95943 13.6029 6.93251 13.6055C6.71008 13.59 6.48765 13.5707 6.26458 13.5604C5.71395 13.534 5.15499 13.4682 4.68385 13.8639C4.53898 13.9058 4.4345 14.018 4.38899 14.1404C4.08579 14.9589 3.48388 15.111 2.68583 15.0433C2.08456 14.9924 1.57945 15.2966 1.26727 15.8521C1.10959 16.0184 1.03331 16.2324 0.985871 16.4444C0.942924 16.6332 0.989717 16.8053 1.25061 16.6545C1.36086 16.5785 1.49355 16.5288 1.55893 16.3974C2.18263 16.0867 2.82172 16.0352 3.50952 16.1737C4.17873 16.3091 4.78449 16.1299 5.18255 15.5164C5.4787 15.0607 5.91587 14.9486 6.40624 14.9911C7.06776 15.0485 7.72543 15.274 8.39272 14.9402C8.39208 15.1535 8.23055 15.187 8.1735 15.2966C8.10107 15.3391 8.02927 15.3823 7.95684 15.4248C7.93056 15.4435 7.90428 15.4616 7.878 15.4803L7.87992 15.4758C7.56646 15.5802 7.24724 15.6691 6.94148 15.7928C6.31842 16.0468 5.86523 16.4566 5.83574 17.1855C5.81138 17.7862 5.45755 18.0704 4.93641 18.2521C3.97425 18.5873 3.52491 19.282 3.58067 20.2977C3.58644 20.3989 3.55696 20.5329 3.69477 20.5684C3.85503 20.6096 3.89156 20.4711 3.92682 20.3622C3.94797 20.2958 3.99477 20.2565 4.02682 20.203C4.4127 19.5714 5.00756 19.2917 5.70241 19.1319C6.41137 18.9688 6.95046 18.5931 7.07673 17.7946C7.12609 17.4833 7.3107 17.25 7.60044 17.1063C7.8312 16.9922 8.06645 16.8936 8.31773 16.8375C8.85425 16.7177 9.36449 16.5417 9.77538 16.1525C9.79782 16.1312 9.81961 16.1093 9.84204 16.088C9.83243 16.079 9.82281 16.0706 9.81256 16.0616C9.81512 15.9984 9.81705 15.9359 9.81897 15.8728C9.81705 15.9359 9.81448 15.9991 9.81256 16.0616C9.82217 16.07 9.83243 16.079 9.84204 16.088C10.0343 16.1428 9.8914 16.262 9.86704 16.3226C9.70423 16.737 9.37219 17.0109 9.04014 17.2816C8.35747 17.8384 8.01838 18.508 8.35939 19.398C8.48952 19.7377 8.39721 20.0277 8.16004 20.2835C7.98568 20.4717 7.803 20.6522 7.63377 20.8455C7.07738 21.481 6.98315 22.2788 7.36903 23.0283C7.42416 23.1353 7.47993 23.2436 7.62928 23.2172C7.77607 23.1908 7.75428 23.0683 7.76902 22.9652C7.85812 22.3368 8.10876 21.7987 8.62349 21.4043C8.77477 21.2883 8.91322 21.1555 9.05809 21.0298C9.07924 21.0111 9.1004 20.9925 9.12155 20.9731C9.7523 20.4769 9.7882 19.8144 9.63949 19.0996C9.65167 19.0539 9.66385 19.0081 9.67602 18.9624C9.70551 18.7942 9.81128 18.6607 9.88179 18.5112C9.95422 18.4307 10.0267 18.3495 10.0991 18.2689C10.1343 18.2335 10.169 18.198 10.2042 18.1626C10.5696 17.8745 10.9875 17.6457 11.2433 17.2339C11.3638 17.1056 11.4907 16.98 11.4805 16.7815C11.5016 16.6861 11.5414 16.6365 11.6337 16.7202C11.6837 17.2854 11.4151 17.7559 11.1882 18.2393C10.8491 18.9611 10.8439 19.6449 11.4164 20.2629C11.6926 20.5607 11.6926 20.8971 11.5503 21.249C11.4862 21.4075 11.401 21.557 11.3298 21.7123C10.9503 22.5489 11.1362 23.4376 11.8106 24.0163C11.8888 24.0834 11.9638 24.1981 12.0824 24.1207C12.1875 24.0524 12.1138 23.9493 12.0901 23.8591C11.9112 23.1753 11.9433 22.5237 12.3631 21.9231C12.4727 21.7665 12.565 21.5931 12.6394 21.4165C12.8381 20.9473 12.9388 20.4595 12.6426 20C12.3234 19.5057 12.2683 19.0139 12.5311 18.4867L12.5272 18.4796C12.5433 18.4506 12.5593 18.4216 12.5747 18.3926C12.5984 18.3508 12.6227 18.3095 12.6465 18.2676C12.8458 17.9731 13.0304 17.6708 13.1285 17.3235C13.1381 17.2925 13.1477 17.261 13.1573 17.23L13.133 17.2158L13.1573 17.23C13.2868 17.0019 13.2535 16.7325 13.3195 16.4418C13.4599 16.6738 13.54 16.8717 13.5413 17.0882C13.5445 17.5258 13.5349 17.9641 13.5298 18.4017C13.5214 19.0822 13.7817 19.6004 14.4092 19.9091C14.6592 20.0322 14.8887 20.1862 14.9913 20.4691L14.9938 20.4666C15.0131 20.7231 14.9983 20.9783 14.9893 21.2354C14.9714 21.7362 15.0483 22.2176 15.4509 22.5785C15.4509 22.5772 15.4509 22.5759 15.4509 22.5746C15.4727 22.5991 15.4945 22.623 15.5163 22.6475C15.513 22.6449 15.5098 22.643 15.5066 22.6404C15.5195 22.6797 15.5393 22.7087 15.5874 22.699C15.6695 22.7673 15.7509 22.8357 15.8329 22.904C16.0188 23.0554 16.2348 23.1431 16.4669 23.1862C16.5662 23.2049 16.6605 23.1708 16.7188 23.0812C16.7784 22.9897 16.7201 22.9227 16.6643 22.8537C16.1496 22.2208 16.0156 21.51 16.1816 20.7121C16.3374 19.9639 16.1791 19.3078 15.4938 18.8573C15.2073 18.6691 15.0663 18.3881 15.0445 18.0466C15.0368 17.9183 15.0201 17.7888 15.0317 17.6618C15.0945 16.9838 15.3169 16.3071 14.9419 15.5711C15.3579 15.8431 15.5246 16.1267 15.7086 16.7808C15.9483 17.6354 16.3938 18.2554 17.3771 18.2657C17.4085 18.2657 17.4393 18.2799 17.4707 18.2857C17.9393 18.3791 18.0995 18.7503 18.2405 19.1435C18.5848 20.1063 19.1937 20.5452 20.1873 20.5458C20.3084 20.5458 20.4668 20.5781 20.5206 20.4279C20.5821 20.2565 20.4187 20.223 20.3123 20.1598C19.8232 19.8672 19.436 19.4992 19.2976 18.9095C19.2283 18.6163 19.1001 18.3366 18.9982 18.0511C18.9995 18.0517 19.0008 18.0524 19.0021 18.053C18.9969 17.9808 18.9764 17.9151 18.9194 17.8661L18.8559 17.7379C18.8142 17.6354 18.7598 17.5419 18.6681 17.4756V17.4743C18.6469 17.4511 18.6264 17.4285 18.6059 17.4053C18.5854 17.3866 18.5642 17.3673 18.5437 17.3486C18.295 17.1076 17.9623 17.0844 17.6527 17.0006L17.6624 17.0128C17.6354 16.9993 17.6085 16.9851 17.5816 16.9716C17.5649 16.9574 17.5457 16.951 17.5239 16.951C17.4765 16.9265 17.429 16.9013 17.3816 16.8768C17.3617 16.8588 17.3425 16.8401 17.3226 16.8214C17.2861 16.7808 17.2502 16.7402 17.2136 16.7003C17.1874 16.6584 17.1611 16.6165 17.1348 16.5746C17.1322 16.5211 17.1156 16.4747 17.0688 16.4431C17.0489 16.3974 17.0284 16.351 17.0085 16.3052C17.0104 16.3065 17.0117 16.3084 17.0136 16.3097C16.9265 16.0332 16.8393 15.7567 16.7515 15.4809C16.729 15.3778 16.7117 15.2727 16.6829 15.1709C16.5893 14.8467 16.3964 14.5767 16.1996 14.3112C16.1079 14.1868 16.0893 14.1204 16.2816 14.161C16.2951 14.1017 16.3085 14.0431 16.3226 13.9838L16.3149 13.9883C16.2861 13.9728 16.2566 13.958 16.2278 13.9426C15.9797 13.7937 15.6829 13.8182 15.4137 13.7144C15.4342 13.6029 15.4624 13.4966 15.5464 13.4128C15.5207 13.32 15.5124 13.2298 15.515 13.1415C15.5124 13.2298 15.5214 13.32 15.5464 13.4128C15.5855 13.3026 15.6483 13.1943 15.6592 13.0809C15.6925 12.738 15.8752 12.7322 16.1425 12.8179C16.679 12.9887 17.1258 13.2717 17.4342 13.7589C17.6002 14.0218 17.8008 14.2571 18.0335 14.4665C18.3707 14.7707 18.7495 14.9428 19.204 14.8358C19.9578 14.6586 20.4251 15.0562 20.8001 15.6253C21.1187 16.1086 21.5379 16.4431 22.0904 16.6075C22.2065 16.4341 22.4366 16.3961 22.6481 16.4792C22.4366 16.3961 22.2065 16.4341 22.0904 16.6075C22.0283 16.7409 21.8969 16.6796 21.7988 16.7131C21.3584 16.6706 21.0251 16.4392 20.7392 16.117C20.6046 15.9656 20.4738 15.8057 20.3174 15.6794C19.9866 15.4132 19.6168 15.2521 19.1944 15.4474C18.4303 15.8006 17.8899 15.4738 17.4136 14.8944C17.1085 14.5232 16.8015 14.1469 16.3226 13.9832C16.3092 14.0424 16.2951 14.1011 16.2816 14.1604C16.6419 14.3189 16.9149 14.5819 17.1643 14.8803C17.3418 15.0929 17.5284 15.3011 17.7354 15.4835C18.0591 15.7696 18.4662 15.9991 18.8745 15.8392C19.6572 15.5331 20.2315 15.7432 20.7136 16.3767C20.7392 16.4102 20.7751 16.436 20.8065 16.465C21.4334 17.0347 22.1988 17.1217 22.9584 16.7099C22.9481 16.7009 22.9378 16.6919 22.9282 16.6835C22.9385 16.6925 22.9481 16.7009 22.9584 16.7099C23.0667 16.6783 23.1731 16.6307 23.1455 16.4953C23.1128 16.3316 22.9577 16.3374 22.8372 16.322C22.1904 16.2388 21.6674 15.9449 21.2776 15.4165C21.1821 15.2876 21.0873 15.1574 20.9834 15.0356C20.5789 14.5632 20.0975 14.2571 19.445 14.3827C18.8835 14.491 18.47 14.2551 18.129 13.842C17.7066 13.3303 17.3681 12.7348 16.6431 12.4725C16.8387 12.3965 16.9521 12.4209 17.0675 12.4293C17.5316 12.4641 17.8989 12.7464 18.3104 12.9159C18.9245 13.1685 19.5277 13.2285 20.0431 12.7367C20.4956 12.3049 20.9373 12.3385 21.4366 12.6201C22.3206 13.1176 23.1795 12.9681 23.8622 12.2186C23.9327 12.1412 24.0397 12.0697 23.9821 11.946L23.9833 11.9485ZM12.6253 1.39593C12.6317 1.41913 12.6356 1.44427 12.6381 1.4694C12.6356 1.44427 12.6317 1.41913 12.6253 1.39593ZM12.5638 1.28573C12.5817 1.30442 12.5958 1.32439 12.6061 1.34631C12.5958 1.32439 12.5817 1.30442 12.5638 1.28573ZM21.9154 16.3503C21.9302 16.3529 21.9449 16.3516 21.9565 16.3458C21.9443 16.3516 21.9302 16.3529 21.9154 16.3503ZM13.1247 16.8685C13.1227 16.8968 13.1221 16.9252 13.1214 16.9535C13.1214 16.9252 13.1234 16.8968 13.1247 16.8685ZM13.0798 15.7857C13.1016 15.7716 13.1227 15.758 13.1452 15.7451C13.1234 15.758 13.1016 15.7722 13.0798 15.7857ZM12.5042 15.8225C12.5157 15.8212 12.5279 15.8199 12.5394 15.8186C12.5279 15.8199 12.5157 15.8205 12.5042 15.8225C12.4824 15.8251 12.4599 15.8283 12.4381 15.8315C12.4599 15.8283 12.4824 15.8251 12.5042 15.8225ZM14.0157 8.76356C14.0208 8.74294 14.0291 8.72296 14.0426 8.70362C14.0291 8.72231 14.0208 8.74229 14.0157 8.76356ZM13.8009 15.3346C13.8253 15.323 13.8509 15.3127 13.8772 15.3043C13.8509 15.3133 13.8253 15.323 13.8009 15.3346C13.7798 15.3449 13.7599 15.3572 13.74 15.3701C13.7592 15.3572 13.7798 15.3449 13.8009 15.3346ZM14.9368 14.3254C14.9349 14.3286 14.9323 14.3318 14.9304 14.3357C14.9323 14.3325 14.9349 14.3286 14.9368 14.3254ZM15.1502 14.2061C15.156 14.161 15.165 14.1172 15.1874 14.0856C15.165 14.1172 15.156 14.161 15.1502 14.2061ZM19.204 8.6714C19.0527 8.63982 19.0123 8.55668 19.0239 8.4497C19.0123 8.55668 19.0527 8.63982 19.204 8.6714C19.2206 8.65078 19.2379 8.6308 19.2546 8.61017C19.2995 8.56957 19.3444 8.52897 19.3892 8.48772C19.4258 8.47677 19.4546 8.45743 19.4578 8.41232L19.4597 8.41812C19.5777 8.38654 19.6956 8.35561 19.8136 8.32403C19.8655 8.31372 19.9174 8.3034 19.9687 8.29309C20.004 8.28729 20.0392 8.28149 20.0745 8.27569C20.1136 8.27505 20.1527 8.27376 20.1918 8.27311C20.2514 8.2802 20.3116 8.28665 20.3713 8.29374C20.443 8.30405 20.5148 8.315 20.586 8.32532C20.618 8.31629 20.6507 8.29954 20.6828 8.29051C20.6507 8.29954 20.618 8.31629 20.586 8.32532C21.0411 8.42263 21.4949 8.42779 21.9475 8.30856C22.0052 8.29309 22.0757 8.23831 22.1135 8.31952C22.1501 8.39879 22.0949 8.46066 22.0302 8.5077C21.809 8.66818 21.5616 8.75905 21.2911 8.78032C21.1853 8.78869 21.077 8.7932 20.9719 8.78032C20.1879 8.68622 19.604 8.92661 19.2732 9.70514C19.1142 10.0783 18.7418 10.211 18.3559 10.2613C18.1014 10.2948 17.8425 10.2987 17.5912 10.2478C16.9528 10.117 16.3791 10.2697 15.8791 10.6622C15.6233 10.8633 15.5207 10.8233 15.4368 10.5294C15.3989 10.3986 15.3278 10.2697 15.2438 10.1621C15.0804 9.95326 15.147 9.81985 15.3534 9.71158C16.0073 9.34101 16.6963 9.4119 17.3976 9.52404C18.2694 9.66389 18.7604 9.41963 19.204 8.67075V8.6714ZM19.8828 4.08468C19.879 4.08081 19.8758 4.07759 19.8719 4.07372C19.8758 4.07759 19.879 4.08081 19.8828 4.08468ZM17.4329 5.83571C17.4271 5.84345 17.422 5.85182 17.4181 5.8602C17.4226 5.85182 17.4277 5.84345 17.4329 5.83571ZM16.1662 7.56484C16.2117 7.54615 16.2566 7.52746 16.3021 7.50812C16.2566 7.52681 16.2117 7.5455 16.1662 7.56484ZM16.1662 7.56613C16.2201 7.56613 16.2688 7.55581 16.3034 7.51006C16.7528 7.38374 17.0547 7.10082 17.1957 6.65226C17.2624 6.44087 17.3156 6.22562 17.3752 6.01165C17.3886 6.0007 17.3938 5.98652 17.3912 5.96976C17.4354 5.90145 17.479 5.83249 17.5232 5.76418V5.76546C17.872 5.47094 18.3002 5.36138 18.7258 5.24731C18.8873 5.20413 19.0514 5.17126 19.1828 5.05654H19.1841C19.3405 5.01723 19.4636 4.92507 19.5738 4.81229C19.611 4.78135 19.6482 4.75106 19.6854 4.72013C19.7937 4.66341 19.8713 4.57512 19.9379 4.47523C19.9828 4.45847 20.0277 4.44107 20.0725 4.42431C19.9469 4.97147 19.6335 5.31304 19.0764 5.46965C18.7899 5.55021 18.5316 5.74935 18.2745 5.91627C17.9572 6.12121 17.8591 6.46472 17.8412 6.80887C17.8008 7.5745 17.3527 7.95281 16.6784 8.15453C16.29 8.27054 15.9047 8.40201 15.5778 8.65658C15.4605 8.74809 15.3387 8.83703 15.2675 8.9743L15.265 8.97752C15.1733 9.06517 15.0887 9.15733 15.0522 9.283L15.0701 9.27849C15.0477 9.30492 15.0246 9.33134 15.0022 9.35841C15.0086 9.40546 15.0201 9.44735 15.0368 9.48408C15.0624 9.53951 15.0996 9.58268 15.1477 9.61426C15.0996 9.58268 15.0624 9.53951 15.0368 9.48408C15.0201 9.44735 15.0086 9.40546 15.0022 9.35841V9.35712C14.9137 9.41577 14.8951 9.65422 14.7131 9.4699L14.647 9.4061C14.6265 9.38354 14.6067 9.36099 14.5862 9.33778C14.4535 9.18762 14.3118 9.04842 14.1265 8.9627L14.124 8.96463L14.1265 8.9627C14.1048 8.94272 14.0823 8.92274 14.0605 8.90212L14.1387 8.67655C14.1567 8.65207 14.1746 8.62757 14.1926 8.60373C14.231 8.55668 14.2689 8.50899 14.3073 8.46194C14.3374 8.42714 14.3669 8.3917 14.3971 8.3569C14.5663 8.228 14.7355 8.09911 14.9047 7.97086C14.8938 7.95861 14.8829 7.94637 14.8727 7.93412C14.8836 7.94637 14.8938 7.95861 14.9047 7.97086C15.3041 7.76785 15.7592 7.74271 16.1662 7.56484V7.56613ZM14.106 8.98332L14.1124 8.97752L14.106 8.98332ZM15.4265 3.0503C15.4034 3.0561 15.3816 3.06383 15.3611 3.0735C15.3438 3.08187 15.3278 3.09154 15.3124 3.1025C15.3278 3.09154 15.3438 3.08123 15.3611 3.0735C15.3816 3.06383 15.4034 3.0561 15.4265 3.0503ZM15.2784 3.13085C15.2784 3.13085 15.2765 3.13343 15.2752 3.13472C15.2765 3.13343 15.2772 3.13214 15.2784 3.13085ZM14.2342 5.80736C14.258 5.7674 14.2695 5.73324 14.2547 5.70424C14.2695 5.73324 14.2586 5.76804 14.2342 5.80736C14.2265 5.82089 14.2169 5.83442 14.2067 5.8486C14.2169 5.83442 14.2265 5.82025 14.2342 5.80736ZM13.3278 6.5543C13.3118 6.54786 13.2971 6.53819 13.2836 6.52337C13.2971 6.53819 13.3118 6.5485 13.3278 6.5543ZM12.942 7.21424L12.9445 7.20844C12.9772 7.15817 13.0093 7.1079 13.042 7.05828L13.0439 7.05699C13.2387 6.88749 13.4336 6.718 13.6278 6.5485C13.5471 6.51886 13.4375 6.5775 13.3522 6.56204C13.4375 6.5775 13.5471 6.5195 13.6278 6.5485C13.6625 6.5253 13.6964 6.50145 13.7304 6.47825C14.4015 6.02519 14.8022 5.44323 14.5996 4.58672C14.5099 4.20906 14.7214 3.93129 14.8855 3.63483C14.981 3.54267 15.0765 3.45051 15.172 3.35835L15.1855 3.3474C15.1932 3.28231 15.2105 3.2301 15.2348 3.18821C15.2105 3.2301 15.1932 3.28231 15.1855 3.3474C15.3297 3.24235 15.4739 3.1373 15.6182 3.03225L15.6207 3.02774L15.6932 2.95298L15.6848 2.96394C15.7092 2.9388 15.7329 2.91367 15.7573 2.88853L15.7496 2.90207C15.7829 2.86726 15.8162 2.83182 15.8496 2.79702C15.9662 2.69777 16.0566 2.57918 16.1124 2.43482L16.1874 2.29497C16.1874 2.29497 16.1874 2.29948 16.1874 2.30142C16.2496 2.22021 16.3028 2.13579 16.306 2.02945C16.3464 1.99787 16.3579 1.95405 16.3553 1.90378C16.338 1.94502 16.3207 1.98691 16.3028 2.02816C16.3201 1.98691 16.3374 1.94502 16.3553 1.90378C16.4188 1.87413 16.4303 1.93922 16.4649 1.96307C16.4669 2.06941 16.4688 2.17574 16.4701 2.28273C16.488 2.25566 16.5015 2.22924 16.5111 2.20217C16.5207 2.1751 16.5252 2.14868 16.5258 2.12225C16.5258 2.14868 16.5207 2.17574 16.5111 2.20217C16.5015 2.22924 16.488 2.25566 16.4701 2.28273C16.456 2.30077 16.4528 2.32011 16.4611 2.34137C16.4682 2.35169 16.4714 2.36071 16.4694 2.36909C16.4707 2.36071 16.4682 2.35104 16.4611 2.34137C16.4464 2.3562 16.4432 2.3736 16.4521 2.39229L16.4508 2.39358C16.363 2.80475 16.0861 3.08832 15.7932 3.35449C15.2829 3.81851 15.1573 4.37985 15.3983 5.00821C15.615 5.5747 15.4618 6.03228 15.0663 6.43701C14.8579 6.65033 14.6208 6.83529 14.4112 7.04797C14.1477 7.31478 13.9131 7.60479 13.8355 7.98955L13.833 7.99535C13.7176 8.19835 13.7445 8.43681 13.6689 8.64949C13.6458 8.65078 13.6227 8.65142 13.6003 8.65206C13.3234 8.48128 13.0259 8.37301 12.7009 8.34401C12.6618 8.33305 12.6234 8.32209 12.5843 8.31114C12.5567 8.29438 12.5349 8.27698 12.5183 8.25958C12.5349 8.27698 12.5567 8.29438 12.5843 8.31114C12.574 7.90319 12.7663 7.56161 12.9413 7.21424H12.942ZM12.1112 8.39814C12.0984 8.40974 12.0837 8.41683 12.0676 8.41748C12.0843 8.41748 12.099 8.40974 12.1112 8.39814ZM9.83884 15.691C9.8523 15.6865 9.8664 15.6826 9.88115 15.6788C9.86704 15.6826 9.85294 15.6865 9.83884 15.691ZM9.06578 9.67936C9.07668 9.66582 9.08566 9.65036 9.09271 9.63231C9.0863 9.64971 9.07732 9.66518 9.06578 9.67936ZM9.09271 9.63167C9.09912 9.61491 9.10296 9.59558 9.10489 9.57495C9.10296 9.59558 9.09912 9.61426 9.09271 9.63167ZM9.02476 9.7148C9.04078 9.70449 9.05424 9.69289 9.06578 9.67936C9.05424 9.69289 9.04078 9.70514 9.02476 9.7148ZM10.3491 15.497C10.3318 15.4938 10.317 15.4964 10.3055 15.5041C10.317 15.4964 10.3318 15.4938 10.3491 15.497ZM10.8754 7.87676C10.8856 7.85098 10.8984 7.8252 10.9132 7.79878C10.8978 7.8252 10.885 7.85098 10.8754 7.87676C10.8247 8.00437 10.8375 8.12295 10.9234 8.23058C10.8375 8.12295 10.8241 8.00501 10.8754 7.87676ZM8.62541 4.92507C8.07927 4.5951 8.04466 4.05761 8.1126 3.50981C8.17222 3.02967 8.25363 2.55663 8.10043 2.08036C8.08055 2.01849 8.04658 1.92504 8.15555 1.8954C8.22927 1.87542 8.27734 1.9244 8.30939 1.9824C8.38696 2.12225 8.46003 2.26404 8.53503 2.40518C8.57221 2.36135 8.55811 2.2853 8.56452 2.22666C8.55811 2.2853 8.57221 2.36135 8.53503 2.40518C8.54977 2.51925 8.56387 2.63332 8.57862 2.74739L8.58246 2.76995C8.57669 2.8866 8.57028 3.00325 8.56452 3.1199C8.48952 3.76888 8.63951 4.32378 9.27091 4.62539C9.91127 4.93087 10.0683 5.46514 10.0382 6.10897C10.0215 6.47181 9.96127 6.83207 10.0055 7.19749C10.042 7.50039 10.1401 7.77622 10.3241 8.01984C10.3266 8.04175 10.3363 8.06044 10.3523 8.0759C10.3587 8.14164 10.3991 8.18224 10.4529 8.21253C10.444 8.32467 10.6997 8.42585 10.5183 8.51479C10.2209 8.66109 9.96384 8.88794 9.63564 8.97237L9.63372 8.97044C9.56705 8.9801 9.5209 9.01104 9.48308 9.05099C9.5209 9.01104 9.56705 8.98075 9.63372 8.97044C9.26321 8.36656 9.08566 7.72982 9.25104 7.01381C9.30809 6.76698 9.30039 6.50339 9.31001 6.24689C9.33116 5.67782 9.12668 5.22669 8.62605 4.92443L8.62541 4.92507ZM7.67672 6.55688C7.66967 6.56139 7.66262 6.56526 7.65492 6.56912C7.66262 6.56526 7.66967 6.56139 7.67672 6.55688ZM7.47352 8.23638C7.39532 7.78202 7.1966 7.39663 6.84277 7.0789C6.63636 6.89394 6.40239 6.82691 6.15881 6.76956C5.69857 6.66193 5.39793 6.38803 5.26653 5.94076C5.06012 5.23442 4.91333 4.5023 4.28386 4.00283C4.73193 4.03247 5.0114 4.27415 5.19281 4.63441C5.30819 4.8632 5.39729 5.10488 5.49344 5.34333C5.70498 5.86729 6.06907 6.17922 6.64854 6.21209C6.80751 6.22111 6.96456 6.25913 7.12225 6.28362C7.10302 6.16117 7.13827 6.11477 7.19789 6.11284C7.13827 6.11413 7.10302 6.16053 7.12225 6.28362C7.20173 6.32422 7.28058 6.36483 7.36006 6.40543C7.41006 6.44861 7.46006 6.49179 7.5107 6.53497C7.52929 6.55623 7.54852 6.5775 7.56711 6.59877C7.83825 6.93003 7.94017 7.33798 8.06517 7.7324C8.28375 8.42392 8.71515 8.92017 9.36321 9.23145C9.27732 9.34487 9.19142 9.45895 9.10553 9.57237C9.03886 9.60975 8.99527 9.66647 8.97091 9.73865C8.97476 9.73736 8.97797 9.73607 8.98181 9.73478L8.98309 9.73349C8.99784 9.72769 9.01322 9.72254 9.0254 9.7148C9.01258 9.72318 8.99784 9.72962 8.98181 9.73542C8.95938 9.7612 8.93694 9.78698 8.91515 9.81276L8.91771 9.80761C8.88758 9.84756 8.8581 9.88752 8.82797 9.92748L8.78438 10.0016C8.73118 10.0293 8.68567 10.0796 8.6158 10.0596L8.61387 10.0583C7.96838 9.61942 7.60685 9.00395 7.4748 8.23702L7.47352 8.23638ZM8.52734 10.4315C8.54336 10.4482 8.54336 10.4688 8.51964 10.4953C8.54336 10.4688 8.54336 10.4482 8.52734 10.4315ZM8.66964 10.1163C8.69528 10.1337 8.71323 10.1298 8.72797 10.1144C8.71323 10.1298 8.69528 10.1337 8.66964 10.1163ZM8.73374 10.1073C8.73374 10.1073 8.73502 10.1054 8.73631 10.1047C8.73566 10.106 8.73502 10.1066 8.73374 10.1073ZM4.87423 8.59406C4.85436 8.59406 4.83385 8.59406 4.81397 8.596C4.83385 8.59471 4.85372 8.59406 4.87423 8.59406ZM4.65052 8.62371C4.63898 8.62693 4.62744 8.63015 4.61654 8.63338C4.62808 8.63015 4.63962 8.62693 4.65052 8.62371ZM6.60623 10.619C6.37483 10.3109 6.16009 9.99321 5.86202 9.74058C5.55049 9.47635 5.20691 9.32683 4.8018 9.42092C4.01464 9.60266 3.5217 9.19987 3.12363 8.59728C2.823 8.14229 2.41917 7.83036 1.89674 7.67633C1.86149 7.54679 1.96149 7.57064 2.02687 7.56548C2.42109 7.53261 2.74288 7.68342 3.02812 7.95023C3.25055 8.15904 3.41273 8.42972 3.68131 8.59019C3.78131 8.70298 3.90246 8.77709 4.05374 8.79578L4.07105 8.79965C4.42552 8.95883 4.705 8.75002 4.99794 8.6076C5.15179 8.59342 5.30563 8.57924 5.45883 8.56506C5.53255 8.53155 5.59921 8.51737 5.65882 8.51737C5.59921 8.51737 5.53319 8.53155 5.45883 8.56506C5.66267 8.65142 5.86651 8.73778 6.06971 8.82414L6.06202 8.81061C6.09791 8.84283 6.13381 8.8757 6.16971 8.90792L6.17163 8.90921C6.50688 9.25852 6.76713 9.68129 7.18635 9.9481C7.36711 10.1279 7.58698 10.2297 7.83441 10.2781L7.85107 10.2813C8.0453 10.3851 8.25234 10.4153 8.469 10.3986C8.47862 10.4379 8.48759 10.4766 8.49721 10.5152C8.48375 10.5449 8.46965 10.5739 8.45618 10.6035L8.43824 10.6113L8.43952 10.6312C8.44401 10.628 8.44785 10.6242 8.45106 10.6196C8.44849 10.6242 8.44465 10.628 8.43952 10.6312C8.42413 10.6789 8.40811 10.7266 8.39272 10.7743C8.28439 10.9773 8.21517 11.1913 8.21837 11.4252C8.20747 11.4381 8.20363 11.4536 8.20683 11.4703C8.20427 11.4794 8.20106 11.489 8.1985 11.4981C8.20106 11.489 8.20427 11.4794 8.20683 11.4703C7.52416 11.4703 7.00494 11.1494 6.60623 10.619ZM8.21517 11.9479C8.31003 12.0426 8.24593 12.1767 8.24593 12.2953C8.24593 12.1767 8.31003 12.0426 8.21517 11.9479ZM8.33247 11.2383C8.34593 11.2126 8.35747 11.1868 8.36837 11.161C8.35747 11.1874 8.34593 11.2132 8.33247 11.2383ZM8.4158 10.9122C8.41708 10.9419 8.4158 10.9702 8.41195 10.9986C8.41516 10.9702 8.41708 10.9419 8.4158 10.9122ZM7.25942 13.1266C6.87097 13.0538 6.52354 12.9159 6.20881 12.6839C5.51908 12.176 4.81397 12.0285 4.04989 12.5434C3.7249 12.7625 3.33709 12.7632 3.01146 12.5705C2.34673 12.1773 1.68649 11.7997 0.872413 11.8235C1.31407 11.4239 1.78777 11.4794 2.27302 11.6701C2.52045 11.7675 2.75313 11.8951 3.0153 11.9627C3.33965 12.0465 3.62619 12.0046 3.8922 11.8068C4.00374 11.7236 4.11656 11.6424 4.2204 11.5503C4.53001 11.2751 4.87743 11.2332 5.26524 11.3466C5.56588 11.4343 5.84215 11.5735 6.11009 11.7249C6.74597 12.0839 7.3998 12.1284 8.07991 11.8802C8.10171 11.8873 8.12414 11.8938 8.14594 11.9009C8.09466 12.2998 8.19401 12.6897 8.21324 13.0848C8.19145 13.0918 8.16965 13.0983 8.14786 13.1054C7.85236 13.1028 7.56454 13.184 7.25942 13.1266ZM8.13824 13.4231C8.12927 13.4283 8.12094 13.4341 8.1126 13.4418C8.1203 13.4347 8.12863 13.4283 8.13824 13.4231ZM7.6498 13.7673C7.55493 13.7698 7.46262 13.7795 7.38057 13.8143C7.46262 13.7789 7.55493 13.7698 7.6498 13.7673ZM4.68513 13.862C4.67616 13.8916 4.67167 13.9245 4.66013 13.9529C4.67103 13.9245 4.67552 13.8916 4.68513 13.862ZM4.57167 14.1075C4.56078 14.1333 4.55437 14.1572 4.55116 14.1797C4.55437 14.1578 4.56142 14.1333 4.57167 14.1075ZM6.49598 14.8229C5.79536 14.723 5.19473 14.8919 4.79859 15.566C4.52488 16.0319 4.05117 16.0912 3.55952 16.0345C3.18902 15.9913 2.82172 15.9295 2.44545 15.9417C2.28584 15.9469 2.13264 15.9172 1.99097 16.0326C1.8929 16.1125 1.80893 16.0899 1.8147 15.9372H1.81277C1.83264 15.9146 1.85251 15.8914 1.87303 15.8689C1.95956 15.7999 2.0852 15.7903 2.14481 15.682C2.18456 15.6665 2.2243 15.6511 2.26468 15.6356C2.31661 15.5937 2.3743 15.5724 2.43647 15.5653C2.3743 15.5718 2.31661 15.5937 2.26468 15.6356C2.34353 15.6117 2.42173 15.5879 2.50057 15.564C2.57044 15.557 2.64031 15.5505 2.71018 15.5434C3.00697 15.5486 3.3044 15.5698 3.5999 15.555C3.96079 15.537 4.24604 15.3643 4.43898 15.0517C4.57296 14.8345 4.70116 14.6141 4.83256 14.3956C4.85372 14.3782 4.87487 14.3608 4.89538 14.3434C4.94987 14.25 5.01589 14.1791 5.09025 14.1256C5.12999 14.0966 5.17294 14.0727 5.21717 14.0528C5.17294 14.0734 5.12999 14.0966 5.09025 14.1256C5.01589 14.1797 4.94987 14.25 4.89538 14.3434C5.37293 14.0482 5.8851 14.0141 6.42483 14.1114C6.64982 14.152 6.88635 14.181 7.11135 14.0843L7.12545 14.0972L7.14148 14.0863C7.44596 14.0727 7.70364 13.9426 7.94081 13.7615C7.95492 13.764 7.96325 13.7582 7.96581 13.7447C8.10876 13.6603 8.2517 13.5752 8.39465 13.4908C8.3126 13.4328 8.25042 13.4089 8.2017 13.4083C8.25042 13.4083 8.3126 13.4328 8.39465 13.4908C8.40298 13.514 8.41131 13.5372 8.42029 13.5604C8.43311 13.5881 8.44657 13.6152 8.45939 13.6429L8.44978 13.6377H8.44849C8.53503 13.8962 8.6581 14.1346 8.84271 14.3376C8.84079 14.3756 8.83951 14.4137 8.83758 14.4517C8.7831 14.4723 8.78951 14.5187 8.79271 14.5632C8.71002 14.5703 8.65361 14.6231 8.59721 14.676C7.91517 14.9885 7.21263 14.9241 6.49726 14.8223L6.49598 14.8229ZM7.46519 15.8515C7.42544 15.8934 7.38442 15.9359 7.39083 15.9746C7.38378 15.9353 7.42544 15.8934 7.46519 15.8515ZM9.61385 15.9243C9.59462 15.9449 9.57603 15.9649 9.5568 15.9849C9.14463 16.3426 8.67285 16.5553 8.13376 16.6609C7.33955 16.8163 6.76649 17.2358 6.63316 18.1071C6.57354 18.4951 6.3056 18.72 5.96651 18.8683C5.84984 18.9192 5.72741 18.9624 5.60306 18.9901C4.97743 19.1312 4.40565 19.3697 3.96977 19.9046C3.94925 19.5611 4.10117 19.2872 4.39604 19.0861C4.65436 18.9095 4.94666 18.8077 5.23319 18.691C5.74856 18.4816 6.07804 18.1361 6.10689 17.5432C6.1415 16.8311 6.54854 16.4122 7.20494 16.2072C7.31647 16.1724 7.4248 16.1286 7.53441 16.0893C8.12735 15.9404 8.60746 15.6156 8.90617 15.0826C9.06835 14.7926 9.19206 14.7475 9.40616 14.9995C9.51 15.0884 9.60231 15.198 9.71961 15.2618C9.91897 15.3701 9.92281 15.5009 9.81384 15.6697C9.74718 15.7542 9.68051 15.8392 9.61449 15.9237C9.68308 15.9056 9.75166 15.8869 9.82089 15.8689C9.7523 15.8869 9.68372 15.9056 9.61449 15.9237L9.61385 15.9243ZM9.88692 17.9989C9.98307 17.9892 10.0914 17.955 10.1536 18.0131C10.1651 18.0234 10.1747 18.0369 10.1824 18.0543C10.1747 18.0369 10.1645 18.0234 10.1536 18.0131C10.0914 17.955 9.98307 17.9892 9.88692 17.9989C9.86448 18.0182 9.84205 18.0369 9.81961 18.0562C9.79717 18.0781 9.77474 18.1007 9.75294 18.1226L9.75487 18.1207C9.73307 18.1426 9.71128 18.1651 9.68949 18.1871L9.69077 18.1858C9.66897 18.2083 9.64718 18.2302 9.62538 18.2528L9.62731 18.2502C9.58949 18.2934 9.55103 18.3366 9.51321 18.3798C9.19783 18.7033 9.09783 19.1029 9.20168 19.5256C9.29462 19.9052 9.21322 20.2294 9.0363 20.551C9.01643 20.5748 8.99591 20.5987 8.97604 20.6232C8.95745 20.6483 8.93886 20.6734 8.92028 20.6986C8.92348 20.7785 8.93502 20.8545 8.96963 20.9203C8.93502 20.8539 8.92348 20.7778 8.92028 20.6986C8.63695 20.9319 8.35362 21.1645 8.0703 21.3978C8.12735 21.4165 8.19017 21.432 8.21901 21.4739C8.18953 21.432 8.12671 21.4159 8.0703 21.3978C8.05171 21.4165 8.03312 21.4346 8.01453 21.4533C7.99466 21.4803 7.97415 21.5074 7.95428 21.5345C7.69146 21.7658 7.58057 22.0932 7.4107 22.4477C7.3248 22.0075 7.39019 21.655 7.64723 21.3566C7.82095 21.1549 8.02094 20.977 8.20876 20.7882C8.60874 20.3854 8.80489 19.9284 8.56387 19.3658C8.30106 18.7516 8.51131 18.2625 8.95489 17.8352C9.16193 17.6354 9.39013 17.4562 9.59013 17.2493C9.95679 16.871 10.1952 16.4264 10.2247 15.8863C10.2446 15.7961 10.2638 15.7052 10.2837 15.615C10.5132 15.7303 10.7491 15.8367 11.0016 15.8792C11.2305 15.9179 11.2625 16.0345 11.2228 16.2375C11.1728 16.4934 11.0542 16.7209 10.9657 16.9606C10.7189 17.4246 10.2452 17.6521 9.88756 18.0002L9.88692 17.9989ZM10.908 17.3499L10.9106 17.3525L10.908 17.3499ZM12.3727 18.169C12.3772 18.2038 12.383 18.238 12.392 18.2708C12.3836 18.238 12.3772 18.2038 12.3727 18.169ZM12.4439 17.9931C12.4183 18.0356 12.3926 18.0775 12.367 18.12V18.1162C11.9971 18.6672 11.8997 19.2479 12.2612 19.8311C12.5817 20.348 12.5484 20.8378 12.2702 21.3482C11.9484 21.9385 11.6144 22.5269 11.6907 23.2546C11.4817 22.9807 11.4023 22.6964 11.4478 22.3639C11.5099 21.9095 11.7785 21.5325 11.8792 21.0911C11.9663 20.7082 11.8978 20.3744 11.6382 20.1076C11.1029 19.5585 11.1298 18.9791 11.4548 18.3424C11.726 17.8107 12.0183 17.2842 11.9529 16.6416C11.9317 16.436 11.7478 16.1834 11.9074 16.0403C12.0266 15.9333 12.2945 15.9997 12.4939 15.9726C12.6074 15.9572 12.717 15.9088 12.8279 15.8753C12.8484 15.8805 12.8689 15.8844 12.8894 15.8863C13.0836 16.6616 12.8785 17.3518 12.4433 17.9924L12.4439 17.9931ZM12.9868 17.0734C12.9862 17.0973 12.9868 17.1198 12.9894 17.1411C12.9862 17.1198 12.9856 17.0973 12.9868 17.0734ZM13.0099 17.2075C13.0009 17.1901 12.9952 17.1714 12.992 17.152C12.9958 17.1714 13.0009 17.1901 13.0099 17.2075ZM15.0714 19.0732C15.8002 19.4844 15.9086 20.1282 15.7701 20.8603C15.6688 21.3946 15.715 21.9012 15.9239 22.3968C15.9509 22.4599 15.9707 22.516 15.9143 22.5714C15.8951 22.5637 15.8752 22.5585 15.8547 22.5566C15.8323 22.534 15.8105 22.5115 15.788 22.4889L15.7951 22.4934C15.7868 22.4412 15.7771 22.3897 15.7169 22.3703C15.6977 22.3491 15.6791 22.3284 15.6598 22.3072C15.6368 22.2808 15.6143 22.2543 15.5913 22.2279L15.5977 22.226C15.4522 22.2331 15.422 22.2891 15.4252 22.3594C15.4227 22.2891 15.4528 22.2337 15.5977 22.226C15.3887 21.8619 15.3111 21.47 15.347 21.0524C15.4098 20.3235 15.1849 19.7667 14.4772 19.4406C14.0342 19.2363 13.8971 18.807 13.8676 18.3469C13.8528 18.1226 13.8708 17.899 13.9022 17.6741C13.9939 17.0193 13.8708 16.4167 13.4253 15.9056C13.2811 16.1589 13.1823 16.4231 13.1413 16.7003C13.1823 16.4231 13.2804 16.1595 13.4253 15.9056C13.408 15.885 13.3907 15.8644 13.3727 15.8431C13.3503 15.7793 13.3984 15.7374 13.4214 15.6878C13.4637 15.6704 13.5054 15.653 13.5477 15.6356C13.7862 15.5505 14.0067 15.4358 14.183 15.247C14.2227 15.247 14.2618 15.2483 14.3015 15.2489C14.3214 15.1748 14.3586 15.1194 14.4067 15.0749C14.3586 15.1194 14.3214 15.1748 14.3015 15.2489C14.6983 15.8218 14.781 16.4554 14.6611 17.1282C14.5874 17.5419 14.5868 17.957 14.6355 18.3746C14.6708 18.6801 14.8227 18.9327 15.0714 19.0732ZM17.3771 17.2345C17.3771 17.2345 17.3707 17.2345 17.3681 17.2345C17.3713 17.2345 17.3745 17.2345 17.3771 17.2345ZM16.9899 16.862C16.9816 16.8395 16.9713 16.8176 16.9604 16.7969C16.9713 16.8182 16.9816 16.8395 16.9899 16.862ZM15.8521 14.4633C15.8419 14.4472 15.8297 14.4324 15.8169 14.4188C15.8297 14.4324 15.8419 14.4472 15.8521 14.4633ZM15.5945 14.3234C15.6996 14.4304 15.8047 14.5374 15.9092 14.6437C15.9284 14.6676 15.9483 14.6901 15.9682 14.7127C16.0079 14.7314 16.0374 14.7565 16.0579 14.7875C16.0374 14.7565 16.0079 14.7314 15.9682 14.7127C15.9682 14.7127 15.9669 14.7121 15.9662 14.7114C15.9829 14.7945 16.0239 14.8616 16.0951 14.9086V14.9067C16.1156 14.9383 16.1361 14.9698 16.1566 15.0008C16.1515 15.0143 16.1553 15.024 16.1682 15.0311C16.1855 15.0607 16.2034 15.0904 16.2207 15.12C16.2169 15.1355 16.2207 15.1477 16.2342 15.1574C16.331 15.2444 16.3899 15.3424 16.4265 15.4461C16.3906 15.3424 16.331 15.2444 16.2342 15.1574C16.3143 15.4487 16.3944 15.74 16.4752 16.0306C16.4746 16.1157 16.4893 16.1963 16.5444 16.2646C16.5412 16.3271 16.5515 16.3845 16.6047 16.4264L16.6111 16.4444C16.738 16.5385 16.863 16.6345 16.9412 16.7615C16.863 16.6345 16.7387 16.5385 16.6111 16.4444C16.6848 16.6932 16.7989 16.9142 17.0213 17.0631L17.0284 17.0676C17.0829 17.0612 17.131 17.065 17.1726 17.0805C17.1316 17.065 17.0835 17.0605 17.0284 17.0676C17.0944 17.1688 17.1951 17.2126 17.3066 17.239C17.3066 17.2384 17.3059 17.2377 17.3053 17.2365C17.7752 17.4214 18.2732 17.56 18.5816 18.0137L18.5803 18.0176C18.6963 18.4055 18.8021 18.7974 18.9322 19.1808C19.061 19.5617 19.3315 19.855 19.652 20.1862C19.229 20.1417 18.9777 19.9574 18.7924 19.6655C18.6258 19.4032 18.5322 19.1093 18.4181 18.8232C18.1873 18.2457 17.7527 17.9596 17.1316 17.9331C16.5521 17.9086 16.2489 17.5213 16.0432 17.0302C15.99 16.9026 15.9444 16.7699 15.913 16.6352C15.7329 15.8715 15.2534 15.3482 14.5996 14.9615C14.5983 14.946 14.5932 14.9318 14.5855 14.9189C14.6836 14.8468 14.7682 14.7617 14.8265 14.6528C14.806 14.6541 14.7861 14.6566 14.7682 14.6599C14.7137 14.6708 14.6701 14.6914 14.6394 14.7243C14.6701 14.6921 14.7137 14.6708 14.7682 14.6599C14.7861 14.656 14.806 14.6541 14.8265 14.6528C14.8464 14.6296 14.8663 14.6064 14.8868 14.5832C15.0009 14.4742 15.1086 14.3615 15.1541 14.2036C15.2554 14.0972 15.3547 14.1759 15.4541 14.2126C15.5009 14.2493 15.5477 14.2854 15.5945 14.3221V14.3234ZM15.8079 14.4117C15.7964 14.4008 15.7842 14.3905 15.7707 14.3814C15.7842 14.3905 15.7964 14.4008 15.8079 14.4117ZM16.4778 15.7368C16.4746 15.673 16.4675 15.6105 16.4553 15.5499C16.4682 15.6105 16.4752 15.673 16.4778 15.7368ZM15.5163 13.1408C15.5169 13.1189 15.5182 13.097 15.5207 13.0751C15.5188 13.097 15.5175 13.1189 15.5163 13.1408ZM22.3654 12.7335C22.0853 12.7206 21.8097 12.6897 21.5443 12.5363C20.8046 12.1097 20.3866 12.1522 19.7469 12.7013C19.3623 13.0313 18.9559 13.019 18.5207 12.8618C18.4508 12.8366 18.3809 12.8063 18.3175 12.7677C17.5091 12.2695 16.6611 12.0478 15.7303 12.381C15.7233 12.0839 15.7156 11.7874 15.7086 11.4903C15.706 11.4272 15.7028 11.364 15.7002 11.3009C15.7143 11.2989 15.7207 11.2905 15.7201 11.2764C16.4797 11.094 17.1688 11.2254 17.8059 11.6985C18.463 12.1864 19.1591 12.2991 19.8828 11.8126C20.1713 11.6186 20.4898 11.6308 20.8052 11.7391C20.9655 11.7945 21.1257 11.8609 21.2719 11.9479C21.8058 12.265 22.3481 12.544 23.0609 12.4371C22.8417 12.6929 22.602 12.7432 22.3667 12.7329L22.3654 12.7335Z" fill="white"/>
</g>
<defs>
<clipPath id="clip0_785_164">
<rect width="24" height="24.1446" fill="white"/>
</clipPath>
</defs>
</svg>
