<svg width="30" height="18" viewBox="0 0 30 18" fill="none" xmlns="http://www.w3.org/2000/svg">
<g clip-path="url(#clip0_1024_408)">
<path d="M0 9.5113C0.602386 8.91608 1.2017 8.31778 1.80818 7.72665C2.25716 7.28892 2.46784 7.29199 2.92193 7.73585C4.63807 9.41517 6.36034 11.0883 8.06011 12.784C8.39761 13.1215 8.60523 13.1553 8.96216 12.7963C10.5361 11.2152 12.1388 9.66369 13.7322 8.10301C13.8907 7.94858 14.0574 7.80233 14.2128 7.64483C14.5248 7.32778 14.8234 7.33289 15.1394 7.64483C15.9034 8.39755 16.6756 9.14312 17.4416 9.89278C18.4398 10.8695 19.4472 11.837 20.4259 12.8321C20.745 13.1563 20.9434 13.1266 21.2533 12.8188C22.9428 11.1374 24.6528 9.47653 26.3557 7.80744C26.9059 7.26846 27.0747 7.26539 27.6157 7.79824C28.1956 8.3679 28.7724 8.94062 29.3502 9.5113V9.71585C29.1017 9.99096 28.8665 10.2794 28.6026 10.5381C26.0591 13.0285 23.5105 15.5137 20.9639 17.9999H20.7593C20.5057 17.776 20.2418 17.5632 20.0005 17.328C18.3539 15.7213 16.7063 14.1156 15.073 12.4946C14.7743 12.198 14.5667 12.1898 14.2762 12.4946C13.6882 13.1113 13.0797 13.7086 12.465 14.2987C11.1774 15.5372 9.88159 16.7665 8.58886 17.9989H8.38432C8.21659 17.8363 8.04886 17.6747 7.88216 17.5111C5.90318 15.5781 3.92011 13.6493 1.94727 11.7112C1.28659 11.0597 0.649432 10.3816 0 9.71585C0 9.64733 0 9.57983 0 9.5113Z" fill="white"/>
<path d="M15.0342 0C15.5671 0.0797727 16.0999 0.1575 16.6327 0.240341C19.4821 0.680114 21.8538 2.00864 23.8194 4.095C24.0925 4.38443 24.0669 4.6708 23.7918 4.94386C23.2355 5.49614 22.6658 6.03511 22.1268 6.60375C21.8302 6.91671 21.6114 6.89625 21.3312 6.59046C20.3054 5.46955 19.1118 4.56955 17.6616 4.08375C14.2856 2.95261 11.2706 3.61432 8.62683 5.99011C8.38649 6.20591 8.15331 6.43398 7.93751 6.67432C7.69513 6.94432 7.48956 6.97909 7.21854 6.69784C6.67547 6.1333 6.11297 5.58511 5.5474 5.04409C5.20888 4.72091 5.19763 4.44068 5.52899 4.08886C7.60001 1.88795 10.1323 0.585 13.1186 0.154432C13.5175 0.0971591 13.9184 0.0511364 14.3183 0H15.0342Z" fill="white"/>
</g>
<defs>
<clipPath id="clip0_1024_408">
<rect width="29.3523" height="18" fill="white"/>
</clipPath>
</defs>
</svg>
