<svg width="24" height="21" viewBox="0 0 24 21" fill="none" xmlns="http://www.w3.org/2000/svg">
    <path fill-rule="evenodd" clip-rule="evenodd"
        d="M1.75 4C1.75 2.75736 2.75736 1.75 4 1.75H18.5C18.6381 1.75 18.75 1.86193 18.75 2V4.25H6C5.58579 4.25 5.25 4.58579 5.25 5C5.25 5.41421 5.58579 5.75 6 5.75H19.5H20C20.1381 5.75 20.25 5.86193 20.25 6V9.25H16.5C15.8096 9.25 15.25 9.80964 15.25 10.5V14.5C15.25 15.1904 15.8096 15.75 16.5 15.75H20.25V19C20.25 19.1381 20.1381 19.25 20 19.25H4C2.75736 19.25 1.75 18.2426 1.75 17V4ZM21.75 15.75V19C21.75 19.9665 20.9665 20.75 20 20.75H4C1.92893 20.75 0.25 19.0711 0.25 17V4C0.25 1.92893 1.92893 0.25 4 0.25H18.5C19.4665 0.25 20.25 1.0335 20.25 2V4.26772C21.0981 4.38903 21.75 5.11838 21.75 6V9.25H22.5C23.1904 9.25 23.75 9.80964 23.75 10.5V14.5C23.75 15.1904 23.1904 15.75 22.5 15.75H21.75ZM16.75 14.25V10.75H22.25V14.25H16.75Z"
        fill="white" />
</svg>