<svg width="140" height="150" viewBox="0 0 140 150" fill="none" xmlns="http://www.w3.org/2000/svg">
    <path
        d="M101.379 14.6551C101.379 13.322 100.298 12.2413 98.9651 12.2413C97.632 12.2413 96.5513 13.322 96.5513 14.6551V19.4827H89.5431C87.3066 19.4827 86.1865 22.1867 87.768 23.7681L102.793 38.7931H89.31C87.9769 38.7931 86.8962 39.8738 86.8962 41.2069C86.8962 42.54 87.9769 43.6206 89.31 43.6206H96.5513V48.4482C96.5513 49.7813 97.632 50.862 98.9651 50.862C100.298 50.862 101.379 49.7813 101.379 48.4482V43.6206H108.387C110.624 43.6206 111.744 40.9167 110.162 39.3352L95.1374 24.3103H108.62C109.953 24.3103 111.034 23.2296 111.034 21.8965C111.034 20.5634 109.953 19.4827 108.62 19.4827H101.379V14.6551Z"
        fill="white" />
    <path fill-rule="evenodd" clip-rule="evenodd"
        d="M98.9651 0.172363C81.6348 0.172363 67.5858 14.2214 67.5858 31.5517C67.5858 48.882 81.6348 62.931 98.9651 62.931C116.295 62.931 130.344 48.882 130.344 31.5517C130.344 14.2214 116.295 0.172363 98.9651 0.172363ZM72.4134 31.5517C72.4134 16.8876 84.301 4.99995 98.9651 4.99995C113.629 4.99995 125.517 16.8876 125.517 31.5517C125.517 46.2158 113.629 58.1034 98.9651 58.1034C84.301 58.1034 72.4134 46.2158 72.4134 31.5517Z"
        fill="white" />
    <path
        d="M135.172 31.5517C135.172 51.5482 118.962 67.7586 98.9655 67.7586H12.069L22.931 53.2758H65.1724C66.5055 53.2758 67.5862 52.1951 67.5862 50.862C67.5862 49.5289 66.5055 48.4482 65.1724 48.4482H22.931C21.4115 48.4482 19.9807 49.1637 19.069 50.3793L8.20691 64.862C5.82002 68.0445 8.09082 72.5862 12.069 72.5862H98.9655C121.628 72.5862 140 54.2144 140 31.5517C140 30.2186 138.919 29.1379 137.586 29.1379C136.253 29.1379 135.172 30.2186 135.172 31.5517Z"
        fill="white" />
    <path
        d="M4.82759 118.448C4.82759 98.4517 21.038 82.2413 41.0345 82.2413H127.931L117.069 96.7241H74.8276C73.4945 96.7241 72.4138 97.8048 72.4138 99.1379C72.4138 100.471 73.4945 101.552 74.8276 101.552H117.069C118.588 101.552 120.019 100.836 120.931 99.6206L131.793 85.1379C134.18 81.9554 131.909 77.4137 127.931 77.4137H41.0345C18.3718 77.4137 0 95.7855 0 118.448C0 119.781 1.08069 120.862 2.41379 120.862C3.74689 120.862 4.82759 119.781 4.82759 118.448Z"
        fill="white" />
    <path
        d="M41.034 99.1379C42.3671 99.1379 43.4478 100.219 43.4478 101.552V106.379H50.6891C52.0222 106.379 53.1029 107.46 53.1029 108.793C53.1029 110.126 52.0222 111.207 50.6891 111.207H37.2062L52.2311 126.232C53.8126 127.813 52.6925 130.517 50.456 130.517H43.4478V135.345C43.4478 136.678 42.3671 137.759 41.034 137.759C39.7009 137.759 38.6202 136.678 38.6202 135.345V130.517H31.3788C30.0457 130.517 28.965 129.437 28.965 128.103C28.965 126.77 30.0457 125.69 31.3788 125.69H44.8617L29.8368 110.665C28.2554 109.083 29.3754 106.379 31.6119 106.379H38.6202V101.552C38.6202 100.219 39.7009 99.1379 41.034 99.1379Z"
        fill="white" />
    <path fill-rule="evenodd" clip-rule="evenodd"
        d="M9.65462 118.448C9.65462 101.118 23.7036 87.0689 41.0339 87.0689C58.3642 87.0689 72.4132 101.118 72.4132 118.448C72.4132 135.779 58.3642 149.828 41.0339 149.828C23.7036 149.828 9.65462 135.779 9.65462 118.448ZM41.0339 91.8965C26.3698 91.8965 14.4822 103.784 14.4822 118.448C14.4822 133.112 26.3698 145 41.0339 145C55.698 145 67.5857 133.112 67.5857 118.448C67.5857 103.784 55.698 91.8965 41.0339 91.8965Z"
        fill="white" />
    <path
        d="M101.379 14.6552C101.379 13.3221 100.298 12.2415 98.965 12.2415C97.6319 12.2415 96.5512 13.3221 96.5512 14.6552V19.4828H89.5429C87.3064 19.4828 86.1864 22.1868 87.7678 23.7683L102.793 38.7932H89.3098C87.9767 38.7932 86.896 39.8739 86.896 41.207C86.896 42.5401 87.9767 43.6208 89.3098 43.6208H96.5512V48.4483C96.5512 49.7815 97.6319 50.8621 98.965 50.8621C100.298 50.8621 101.379 49.7815 101.379 48.4483V43.6208H108.387C110.623 43.6208 111.744 40.9168 110.162 39.3353L95.1372 24.3104H108.62C109.953 24.3104 111.034 23.2297 111.034 21.8966C111.034 20.5635 109.953 19.4828 108.62 19.4828H101.379V14.6552Z"
        fill="url(#paint0_linear_4232_4781)" />
    <path
        d="M41.0338 99.138C42.3669 99.138 43.4476 100.219 43.4476 101.552V106.379H50.689C52.0221 106.379 53.1028 107.46 53.1028 108.793C53.1028 110.126 52.0221 111.207 50.689 111.207H37.206L52.231 126.232C53.8124 127.813 52.6923 130.517 50.4559 130.517H43.4476V135.345C43.4476 136.678 42.3669 137.759 41.0338 137.759C39.7007 137.759 38.62 136.678 38.62 135.345V130.517H31.3786C30.0455 130.517 28.9648 129.437 28.9648 128.104C28.9648 126.77 30.0455 125.69 31.3786 125.69H44.8616L29.8367 110.665C28.2552 109.083 29.3753 106.379 31.6117 106.379H38.62V101.552C38.62 100.219 39.7007 99.138 41.0338 99.138Z"
        fill="url(#paint1_linear_4232_4781)" />
    <defs>
        <linearGradient id="paint0_linear_4232_4781" x1="111.034" y1="75" x2="28.9648" y2="75"
            gradientUnits="userSpaceOnUse">
            <stop stop-color="#29B8ED" />
            <stop offset="1" stop-color="#2DF6A7" />
        </linearGradient>
        <linearGradient id="paint1_linear_4232_4781" x1="111.034" y1="75" x2="28.9648" y2="75"
            gradientUnits="userSpaceOnUse">
            <stop stop-color="#29B8ED" />
            <stop offset="1" stop-color="#2DF6A7" />
        </linearGradient>
    </defs>
</svg>