<?xml version="1.0" encoding="utf-8"?>
<!-- Generator: Adobe Illustrator 27.2.0, SVG Export Plug-In . SVG Version: 6.00 Build 0)  -->
<svg version="1.1" id="Layer_1" xmlns="http://www.w3.org/2000/svg" xmlns:xlink="http://www.w3.org/1999/xlink" x="0px"
	y="0px" viewBox="0 0 821.5 239.5" style="enable-background:new 0 0 821.5 239.5;" xml:space="preserve">
	<style type="text/css">
		.st0 {
			fill: url(#SVGID_1_);
		}

		.st1 {
			fill: url(#SVGID_00000021838382492496351740000005691341646306606003_);
		}

		.st2 {
			fill: url(#SVGID_00000004516286875225874130000010630823045811033988_);
		}

		.st3 {
			fill: url(#SVGID_00000003802052014119377340000015823808499835371669_);
		}

		.st4 {
			fill: url(#SVGID_00000039816172735423937270000008109698974518728357_);
		}

		.st5 {
			fill: url(#SVGID_00000018198408535704827400000012170821393487521953_);
		}

		.st6 {
			fill: url(#SVGID_00000145028579713101275780000012451669129981343152_);
		}

		.st7 {
			fill: url(#SVGID_00000126285628955446118130000014417172618820608139_);
		}
	</style>
	<g>
		<g>
			<path
				d="M346.2,130.4c0,24-18.3,37.4-38.4,37.4s-38.4-13.4-38.4-37.4S287.7,93,307.8,93C328.1,93.1,346.2,106.4,346.2,130.4z
			 M273.5,130.4c0,21.6,16.5,33.6,34.3,33.6c17.7,0,34.3-12,34.3-33.6s-16.3-33.6-34.3-33.6C290.1,96.9,273.5,108.9,273.5,130.4z" />
			<path d="M374.4,120v45.4c0,0.3-0.3,0.7-0.7,0.7h-2.8c-0.3,0-0.7-0.3-0.7-0.7V95.5c0-0.3,0.3-0.7,0.7-0.7h2.1
			c0.2,0,0.9,0.2,0.9,1.9l0.5,14.4h0.3c5.6-9.2,16.9-18.1,30.6-18.1c15.3,0,23.5,9.4,23.5,23v6.1c0,0.3-0.3,0.7-0.7,0.7h-2.8
			c-0.3,0-0.7-0.3-0.7-0.7V116c0-11.1-6.8-19.1-19.3-19.1C390.7,96.9,379.6,107.7,374.4,120z" />
			<path d="M450.7,60.7c2.1,0,3.1,2.3,3.1,4.5c0,2.3-1,4.5-3.1,4.5s-3.1-2.3-3.1-4.5S448.7,60.7,450.7,60.7z M448.7,95.5
			c0-0.3,0.3-0.7,0.7-0.7h2.8c0.3,0,0.7,0.3,0.7,0.7v69.9c0,0.3-0.3,0.7-0.7,0.7h-2.8c-0.3,0-0.7-0.3-0.7-0.7V95.5z" />
			<path d="M531.1,105.4c2.6,4.2,4,8.9,4,14.1c0,14.6-11.1,26.4-28.2,26.4c-7.5,0-13.9-2.3-18.8-6.1c-3,2.6-6.1,6.4-6.1,11.7
			c0,7.5,6.1,11.8,15,11.8h20.5c18.3,0,26.4,9.9,26.4,22.3c0,12.2-10.6,25.7-33.9,25.7h-0.7c-19.8,0-32.5-11.1-32.5-24.4
			c0-9.4,4.9-16.2,11.5-20.9v-0.2c-6.3-2.3-10.4-7.7-10.4-14.1c0-6.1,3.3-11.1,7.5-14.6c-4.3-4.7-6.6-11-6.6-17.7
			c0-14.6,11.1-26.4,28.2-26.4c9.4,0,16.9,3.7,21.9,9.2h0.2c3.1-5.2,9-9.2,16.7-9.2c0.3,0,0.7,0.3,0.7,0.7v2.4
			c0,0.3-0.3,0.7-0.7,0.7C540.3,96.9,534.8,99.3,531.1,105.4z M493.5,167c-5.2,3-12.5,9.7-12.5,20c0,11.7,12,20.5,28.3,20.5h0.7
			c19.7,0,29.7-11.1,29.7-21.9c0-9.2-5.6-18.4-22.3-18.4h-20.7C495.6,167.1,494.6,167,493.5,167z M506.9,142.1
			c14.4,0,24-10.1,24-22.6s-9.6-22.6-24-22.6c-14.4,0-24,10.1-24,22.6S492.5,142.1,506.9,142.1z" />
			<path
				d="M564.7,117.4c0-16.2,12-24.4,31.5-24.4c25.7,0,35.3,13.4,35.3,31.3v41c0,0.3-0.2,0.7-0.7,0.7h-1.9c-0.5,0-1.2-0.2-1.2-1.7
			l-0.3-10.4h-0.3l-3,2.1c-9,6.4-20.7,11.8-35.5,11.8c-17,0-26.4-8.7-26.4-19.3s8.3-18.6,26.8-18.6h38.4v-5.6
			c0-15.3-7.5-27.5-31.1-27.5c-17.6,0-27.3,7-27.3,20.7v1.2c0,0.3-0.3,0.7-0.7,0.7h-2.6c-0.3,0-0.9-0.5-0.9-0.9L564.7,117.4
			L564.7,117.4z M627.3,148.5v-14.8h-38.4c-17.6,0-22.6,8-22.6,14.8c0,8.9,8.5,15.5,22.3,15.5C604.1,164,617.9,156.4,627.3,148.5z" />
			<path d="M713.7,117.9c0,0,0,1.4,0,47.5c0,0.3-0.3,0.7-0.7,0.7h-2.8c-0.3,0-0.7-0.3-0.7-0.7v-44.5c0-15.3-7-24-19.5-24
			c-12.7,0-23.1,8.7-29.4,21.2v47.3c0,0.3-0.3,0.7-0.7,0.7h-2.8c-0.3,0-0.7-0.3-0.7-0.7V95.5c0-0.3,0.3-0.7,0.7-0.7h2.1
			c0.2,0,0.9,0.2,0.9,1.9l0.5,13.7h0.3c6.4-10.3,16.5-17.4,29-17.4c12.7,0,20.3,7.3,22.8,18.8h0.2C719.7,100.3,730.5,93,743,93
			c15.8,0,23.7,11.1,23.7,27.8v44.5c0,0.3-0.3,0.7-0.7,0.7h-2.8c-0.3,0-0.7-0.3-0.7-0.7v-44.5c0-15.3-7-24-19.5-24
			C731.1,96.9,720.3,104.9,713.7,117.9z" />
			<path d="M793.9,60.7c2.1,0,3.1,2.3,3.1,4.5c0,2.3-1,4.5-3.1,4.5s-3.1-2.3-3.1-4.5C790.8,63,791.8,60.7,793.9,60.7z M791.8,95.5
			c0-0.3,0.3-0.7,0.7-0.7h2.8c0.3,0,0.7,0.3,0.7,0.7v69.9c0,0.3-0.3,0.7-0.7,0.7h-2.8c-0.3,0-0.7-0.3-0.7-0.7V95.5z" />
		</g>
		<g>

			<linearGradient id="SVGID_1_" gradientUnits="userSpaceOnUse" x1="274.3393" y1="133.0782" x2="524.8029"
				y2="-117.3852" gradientTransform="matrix(1 0 0 -1 12 242)">
				<stop offset="0.1517" style="stop-color:#2EB8EC" />
				<stop offset="0.8761" style="stop-color:#2DF6A7" />
			</linearGradient>
			<path class="st0" d="M346.2,130.4c0,24-18.3,37.4-38.4,37.4s-38.4-13.4-38.4-37.4S287.7,93,307.8,93
			C328.1,93.1,346.2,106.4,346.2,130.4z M273.5,130.4c0,21.6,16.5,33.6,34.3,33.6c17.7,0,34.3-12,34.3-33.6s-16.3-33.6-34.3-33.6
			C290.1,96.9,273.5,108.9,273.5,130.4z" />

			<linearGradient id="SVGID_00000160178697164057435420000016167644631102271908_"
				gradientUnits="userSpaceOnUse" x1="317.6118" y1="176.3507" x2="568.0754" y2="-74.1127"
				gradientTransform="matrix(1 0 0 -1 12 242)">
				<stop offset="0.1517" style="stop-color:#2EB8EC" />
				<stop offset="0.8761" style="stop-color:#2DF6A7" />
			</linearGradient>
			<path style="fill:url(#SVGID_00000160178697164057435420000016167644631102271908_);" d="M374.4,120v45.4c0,0.3-0.3,0.7-0.7,0.7
			h-2.8c-0.3,0-0.7-0.3-0.7-0.7V95.5c0-0.3,0.3-0.7,0.7-0.7h2.1c0.2,0,0.9,0.2,0.9,1.9l0.5,14.4h0.3c5.6-9.2,16.9-18.1,30.6-18.1
			c15.3,0,23.5,9.4,23.5,23v6.1c0,0.3-0.3,0.7-0.7,0.7h-2.8c-0.3,0-0.7-0.3-0.7-0.7V116c0-11.1-6.8-19.1-19.3-19.1
			C390.7,96.9,379.6,107.7,374.4,120z" />

			<linearGradient id="SVGID_00000145033558648956030720000000402681549289418910_"
				gradientUnits="userSpaceOnUse" x1="354.1553" y1="212.8942" x2="604.6188" y2="-37.5692"
				gradientTransform="matrix(1 0 0 -1 12 242)">
				<stop offset="0.1517" style="stop-color:#2EB8EC" />
				<stop offset="0.8761" style="stop-color:#2DF6A7" />
			</linearGradient>
			<path style="fill:url(#SVGID_00000145033558648956030720000000402681549289418910_);" d="M450.7,60.7c2.1,0,3.1,2.3,3.1,4.5
			c0,2.3-1,4.5-3.1,4.5s-3.1-2.3-3.1-4.5S448.7,60.7,450.7,60.7z M448.7,95.5c0-0.3,0.3-0.7,0.7-0.7h2.8c0.3,0,0.7,0.3,0.7,0.7v69.9
			c0,0.3-0.3,0.7-0.7,0.7h-2.8c-0.3,0-0.7-0.3-0.7-0.7V95.5z" />

			<linearGradient id="SVGID_00000142153173342071313040000004409558637148663454_"
				gradientUnits="userSpaceOnUse" x1="369.2139" y1="227.9528" x2="619.6774" y2="-22.5106"
				gradientTransform="matrix(1 0 0 -1 12 242)">
				<stop offset="0.1517" style="stop-color:#2EB8EC" />
				<stop offset="0.8761" style="stop-color:#2DF6A7" />
			</linearGradient>
			<path style="fill:url(#SVGID_00000142153173342071313040000004409558637148663454_);" d="M531.1,105.4c2.6,4.2,4,8.9,4,14.1
			c0,14.6-11.1,26.4-28.2,26.4c-7.5,0-13.9-2.3-18.8-6.1c-3,2.6-6.1,6.4-6.1,11.7c0,7.5,6.1,11.8,15,11.8h20.5
			c18.3,0,26.4,9.9,26.4,22.3c0,12.2-10.6,25.7-33.9,25.7h-0.7c-19.8,0-32.5-11.1-32.5-24.4c0-9.4,4.9-16.2,11.5-20.9v-0.2
			c-6.3-2.3-10.4-7.7-10.4-14.1c0-6.1,3.3-11.1,7.5-14.6c-4.3-4.7-6.6-11-6.6-17.7c0-14.6,11.1-26.4,28.2-26.4
			c9.4,0,16.9,3.7,21.9,9.2h0.2c3.1-5.2,9-9.2,16.7-9.2c0.3,0,0.7,0.3,0.7,0.7v2.4c0,0.3-0.3,0.7-0.7,0.7
			C540.3,96.9,534.8,99.3,531.1,105.4z M493.5,167c-5.2,3-12.5,9.7-12.5,20c0,11.7,12,20.5,28.3,20.5h0.7
			c19.7,0,29.7-11.1,29.7-21.9c0-9.2-5.6-18.4-22.3-18.4h-20.7C495.6,167.1,494.6,167,493.5,167z M506.9,142.1
			c14.4,0,24-10.1,24-22.6s-9.6-22.6-24-22.6c-14.4,0-24,10.1-24,22.6S492.5,142.1,506.9,142.1z" />

			<linearGradient id="SVGID_00000027566415296076394540000014649725776659166868_"
				gradientUnits="userSpaceOnUse" x1="417.6909" y1="276.4298" x2="668.1544" y2="25.9664"
				gradientTransform="matrix(1 0 0 -1 12 242)">
				<stop offset="0.1517" style="stop-color:#2EB8EC" />
				<stop offset="0.8761" style="stop-color:#2DF6A7" />
			</linearGradient>
			<path style="fill:url(#SVGID_00000027566415296076394540000014649725776659166868_);" d="M564.7,117.4c0-16.2,12-24.4,31.5-24.4
			c25.7,0,35.3,13.4,35.3,31.3v41c0,0.3-0.2,0.7-0.7,0.7h-1.9c-0.5,0-1.2-0.2-1.2-1.7l-0.3-10.4h-0.3l-3,2.1
			c-9,6.4-20.7,11.8-35.5,11.8c-17,0-26.4-8.7-26.4-19.3s8.3-18.6,26.8-18.6h38.4v-5.6c0-15.3-7.5-27.5-31.1-27.5
			c-17.6,0-27.3,7-27.3,20.7v1.2c0,0.3-0.3,0.7-0.7,0.7h-2.6c-0.3,0-0.9-0.5-0.9-0.9L564.7,117.4L564.7,117.4z M627.3,148.5v-14.8
			h-38.4c-17.6,0-22.6,8-22.6,14.8c0,8.9,8.5,15.5,22.3,15.5C604.1,164,617.9,156.4,627.3,148.5z" />

			<linearGradient id="SVGID_00000034808403594182144610000013125023156113150350_"
				gradientUnits="userSpaceOnUse" x1="473.3871" y1="332.126" x2="723.8506" y2="81.6626"
				gradientTransform="matrix(1 0 0 -1 12 242)">
				<stop offset="0.1517" style="stop-color:#2EB8EC" />
				<stop offset="0.8761" style="stop-color:#2DF6A7" />
			</linearGradient>
			<path style="fill:url(#SVGID_00000034808403594182144610000013125023156113150350_);" d="M713.7,117.9c0,0,0,1.4,0,47.5
			c0,0.3-0.3,0.7-0.7,0.7h-2.8c-0.3,0-0.7-0.3-0.7-0.7v-44.5c0-15.3-7-24-19.5-24c-12.7,0-23.1,8.7-29.4,21.2v47.3
			c0,0.3-0.3,0.7-0.7,0.7h-2.8c-0.3,0-0.7-0.3-0.7-0.7V95.5c0-0.3,0.3-0.7,0.7-0.7h2.1c0.2,0,0.9,0.2,0.9,1.9l0.5,13.7h0.3
			c6.4-10.3,16.5-17.4,29-17.4c12.7,0,20.3,7.3,22.8,18.8h0.2C719.7,100.3,730.5,93,743,93c15.8,0,23.7,11.1,23.7,27.8v44.5
			c0,0.3-0.3,0.7-0.7,0.7h-2.8c-0.3,0-0.7-0.3-0.7-0.7v-44.5c0-15.3-7-24-19.5-24C731.1,96.9,720.3,104.9,713.7,117.9z" />

			<linearGradient id="SVGID_00000123422609778425152200000014793799403721542317_"
				gradientUnits="userSpaceOnUse" x1="525.7302" y1="384.4692" x2="776.1937" y2="134.0058"
				gradientTransform="matrix(1 0 0 -1 12 242)">
				<stop offset="0.1517" style="stop-color:#2EB8EC" />
				<stop offset="0.8761" style="stop-color:#2DF6A7" />
			</linearGradient>
			<path style="fill:url(#SVGID_00000123422609778425152200000014793799403721542317_);" d="M793.9,60.7c2.1,0,3.1,2.3,3.1,4.5
			c0,2.3-1,4.5-3.1,4.5s-3.1-2.3-3.1-4.5C790.8,63,791.8,60.7,793.9,60.7z M791.8,95.5c0-0.3,0.3-0.7,0.7-0.7h2.8
			c0.3,0,0.7,0.3,0.7,0.7v69.9c0,0.3-0.3,0.7-0.7,0.7h-2.8c-0.3,0-0.7-0.3-0.7-0.7V95.5z" />
		</g>
	</g>
	<linearGradient id="SVGID_00000095311994709172113390000010480967233156324008_" gradientUnits="userSpaceOnUse"
		x1="35.651" y1="118.1" x2="226.7398" y2="118.1" gradientTransform="matrix(1 0 0 -1 0 242)">
		<stop offset="0.1239" style="stop-color:#2DF6A7" />
		<stop offset="0.8483" style="stop-color:#2EB8EC" />
	</linearGradient>
	<path style="fill:url(#SVGID_00000095311994709172113390000010480967233156324008_);" d="M194.5,55.6l-27.2,37.7l-16-35.8
	l-14.5,16.2L122.9,38L99.3,85.9L74.4,50.1l-49.5,107l58.6-24.4l52.4,77.1l52.5-68.6l47.7,24.3L194.5,55.6z M195.3,66.9l34.8,92
	L190,138.5L195.3,66.9z M192.3,64.3l-5.4,73.7l-0.2,0.2l-17.8-41.4l1.1-1.6L192.3,64.3z M165.1,96.3L165.1,96.3l19.3,44.9l-46,60.1
	L152,67l12.4,27.7L165.1,96.3z M149,65.1l-14,137.7l-48.7-71.7l49.4-51.4v0.1l0.9-1l1.5-1.5l-0.1-0.1l1.2-1.3L149,65.1z M134.5,76.4
	l-7.9,8.2l-1.9-33.3l9.2,23.5L134.5,76.4z M121.3,48.7l2.2,39.1l-13.4,13.9l-8.7-12.9l0.8-1.5L121.3,48.7z M99.7,92.2L99.7,92.2
	l8.1,11.9l-23.2,24.1L77,59.7l19.5,28.1L99.7,92.2z M73.8,59.2l7.8,70.8l-50.3,21L73.8,59.2z" />
</svg>