<svg width="280" height="60" viewBox="0 0 280 60" fill="none" xmlns="http://www.w3.org/2000/svg">
<g clip-path="url(#clip0_4401_4698)">
<path d="M30 0L22.5 22.5L0 30M30 60L37.5 37.5M60 30L37.5 37.5M0 0C4.68629 4.68629 7.31371 7.31371 12 12L30 30L37.5 37.5M0 18L6 12M12 6L18 0M45 30L37.5 22.5L30 15M30 45L22.6149 37.3851L15 30" stroke="url(#paint0_linear_4401_4698)" stroke-width="1.5"/>
<rect x="0.75" y="0.75" width="58.5" height="58.5" stroke="white" stroke-width="1.5"/>
<path d="M15 30H30M15 30L0 60L30 45M15 30L12.8571 25.7143M30 15V30M30 15L60 0L45 30M30 15L25.7143 12.8571M45 30H30M45 30L47.1429 34.2857M30 45V30M30 45L34.2857 47.1429M60 60L37.5 37.5M60 60L47.1429 34.2857M60 60L34.2857 47.1429M6 12L0 0L12 6M6 12H12M6 12L12.8571 25.7143M12 12V6M12 12L22.5 22.5M12 6L25.7143 12.8571M0 30L12.8571 25.7143M30 0L25.7143 12.8571M30 60L34.2857 47.1429M60 30L47.1429 34.2857" stroke="white" stroke-width="1.5" stroke-linecap="round"/>
</g>
<path d="M107.16 36.44C107.16 37.6667 106.973 38.7867 106.6 39.8C106.253 40.7867 105.613 41.64 104.68 42.36C103.773 43.0533 102.507 43.6 100.88 44C99.28 44.4 97.24 44.6 94.76 44.6C92.28 44.6 90.2267 44.4 88.6 44C86.9733 43.6 85.6933 43.0533 84.76 42.36C83.8533 41.64 83.2133 40.7867 82.84 39.8C82.4933 38.7867 82.32 37.6667 82.32 36.44V22.8C82.32 21.5733 82.4933 20.4667 82.84 19.48C83.2133 18.4667 83.8533 17.6 84.76 16.88C85.6933 16.16 86.9733 15.6 88.6 15.2C90.2267 14.8 92.28 14.6 94.76 14.6C97.24 14.6 99.28 14.8 100.88 15.2C102.507 15.6 103.773 16.16 104.68 16.88C105.613 17.6 106.253 18.4667 106.6 19.48C106.973 20.4667 107.16 21.5733 107.16 22.8V36.44ZM91.4 35C91.4 35.5333 91.6 35.9867 92 36.36C92.4 36.7067 93.32 36.88 94.76 36.88C96.2 36.88 97.12 36.7067 97.52 36.36C97.92 35.9867 98.12 35.5333 98.12 35V24.24C98.12 23.7333 97.92 23.3067 97.52 22.96C97.12 22.5867 96.2 22.4 94.76 22.4C93.32 22.4 92.4 22.5867 92 22.96C91.6 23.3067 91.4 23.7333 91.4 24.24V35ZM121.292 22.4V27.52H124.292C124.986 27.52 125.452 27.3467 125.692 27C125.932 26.6267 126.052 26.1733 126.052 25.64V24.28C126.052 23.7467 125.932 23.3067 125.692 22.96C125.452 22.5867 124.986 22.4 124.292 22.4H121.292ZM119.852 44H113.692C113.186 44 112.812 43.8933 112.572 43.68C112.359 43.44 112.252 43.0667 112.252 42.56V16.64C112.252 16.1333 112.359 15.7733 112.572 15.56C112.812 15.32 113.186 15.2 113.692 15.2H127.012C129.999 15.2 132.052 15.8267 133.172 17.08C134.319 18.3067 134.892 19.9067 134.892 21.88V23.72C134.892 24.84 134.719 25.8 134.372 26.6C134.052 27.3733 133.479 27.9333 132.652 28.28C134.092 28.44 135.252 29.0267 136.132 30.04C137.039 31.0533 137.492 32.4 137.492 34.08V42.56C137.492 43.0667 137.372 43.44 137.132 43.68C136.919 43.8933 136.559 44 136.052 44H129.852C129.346 44 128.972 43.8933 128.732 43.68C128.519 43.44 128.412 43.0667 128.412 42.56V36.44C128.412 35.8533 128.292 35.4267 128.052 35.16C127.839 34.8667 127.452 34.72 126.892 34.72H121.292V42.56C121.292 43.0667 121.172 43.44 120.932 43.68C120.719 43.8933 120.359 44 119.852 44ZM142.779 44C142.272 44 141.899 43.8933 141.659 43.68C141.445 43.44 141.339 43.0667 141.339 42.56V37.8C141.339 37.2933 141.445 36.9333 141.659 36.72C141.899 36.48 142.272 36.36 142.779 36.36H146.739V22.92H142.779C142.272 22.92 141.899 22.8133 141.659 22.6C141.445 22.36 141.339 21.9867 141.339 21.48V16.64C141.339 16.1333 141.445 15.7733 141.659 15.56C141.899 15.32 142.272 15.2 142.779 15.2H159.819C160.325 15.2 160.685 15.32 160.899 15.56C161.139 15.7733 161.259 16.1333 161.259 16.64V21.48C161.259 21.9867 161.139 22.36 160.899 22.6C160.685 22.8133 160.325 22.92 159.819 22.92H155.939V36.36H159.819C160.325 36.36 160.685 36.48 160.899 36.72C161.139 36.9333 161.259 37.2933 161.259 37.8V42.56C161.259 43.0667 161.139 43.44 160.899 43.68C160.685 43.8933 160.325 44 159.819 44H142.779ZM188.198 44H175.598C172.264 44 169.784 43.3333 168.158 42C166.558 40.6667 165.758 38.6133 165.758 35.84V23.36C165.758 20.5867 166.558 18.5333 168.158 17.2C169.784 15.8667 172.264 15.2 175.598 15.2H185.598C186.104 15.2 186.464 15.32 186.678 15.56C186.918 15.7733 187.038 16.1333 187.038 16.64V21.48C187.038 21.9867 186.918 22.36 186.678 22.6C186.464 22.8133 186.104 22.92 185.598 22.92H177.278C176.451 22.92 175.838 23.0933 175.438 23.44C175.038 23.76 174.838 24.2533 174.838 24.92V34.48C174.838 35.1467 174.984 35.64 175.278 35.96C175.598 36.28 176.064 36.44 176.678 36.44H180.558V30.2C180.558 29.6933 180.664 29.3333 180.878 29.12C181.118 28.88 181.491 28.76 181.998 28.76H188.198C188.704 28.76 189.064 28.88 189.278 29.12C189.518 29.3333 189.638 29.6933 189.638 30.2V42.56C189.638 43.0667 189.518 43.44 189.278 43.68C189.064 43.8933 188.704 44 188.198 44ZM204.958 23.6L203.078 29.68H209.358L207.478 23.6C207.371 23.36 207.251 23.1867 207.118 23.08C207.011 22.9733 206.878 22.92 206.718 22.92H205.718C205.558 22.92 205.411 22.9733 205.278 23.08C205.171 23.1867 205.064 23.36 204.958 23.6ZM202.678 42.56C202.678 43.0667 202.558 43.44 202.318 43.68C202.104 43.8933 201.744 44 201.238 44H195.358C194.851 44 194.478 43.8933 194.238 43.68C194.024 43.44 193.918 43.0667 193.918 42.56V32C193.918 31.2 194.038 30.28 194.278 29.24C194.544 28.2 194.944 26.9867 195.478 25.6L198.958 16.52C199.118 16.0667 199.358 15.7333 199.678 15.52C200.024 15.3067 200.464 15.2 200.998 15.2H211.758C212.264 15.2 212.678 15.3067 212.998 15.52C213.344 15.7333 213.598 16.0667 213.758 16.52L217.238 25.6C217.771 26.9867 218.158 28.2 218.398 29.24C218.664 30.28 218.798 31.2 218.798 32V42.56C218.798 43.0667 218.678 43.44 218.438 43.68C218.224 43.8933 217.864 44 217.358 44H211.318C210.784 44 210.384 43.8933 210.118 43.68C209.878 43.44 209.758 43.0667 209.758 42.56V36.96H202.678V42.56ZM231.137 44H225.177C224.67 44 224.297 43.8933 224.057 43.68C223.843 43.44 223.737 43.0667 223.737 42.56V16.64C223.737 16.1333 223.843 15.7733 224.057 15.56C224.297 15.32 224.67 15.2 225.177 15.2H231.617C232.043 15.2 232.39 15.2933 232.657 15.48C232.95 15.6667 233.217 15.9733 233.457 16.4L237.057 22.92C237.19 23.16 237.297 23.3333 237.377 23.44C237.483 23.5467 237.617 23.6 237.777 23.6H238.137C238.297 23.6 238.417 23.5467 238.497 23.44C238.603 23.3333 238.723 23.16 238.857 22.92L242.417 16.4C242.657 15.9733 242.91 15.6667 243.177 15.48C243.47 15.2933 243.83 15.2 244.257 15.2H250.737C251.243 15.2 251.603 15.32 251.817 15.56C252.057 15.7733 252.177 16.1333 252.177 16.64V42.56C252.177 43.0667 252.057 43.44 251.817 43.68C251.603 43.8933 251.243 44 250.737 44H244.577C244.07 44 243.697 43.8933 243.457 43.68C243.243 43.44 243.137 43.0667 243.137 42.56V28.48L240.777 32.84C240.537 33.2933 240.243 33.6267 239.897 33.84C239.577 34.0267 239.163 34.12 238.657 34.12H237.057C236.55 34.12 236.123 34.0267 235.777 33.84C235.457 33.6267 235.177 33.2933 234.937 32.84L232.577 28.48V42.56C232.577 43.0667 232.457 43.44 232.217 43.68C232.003 43.8933 231.643 44 231.137 44ZM258.482 44C257.975 44 257.602 43.8933 257.362 43.68C257.149 43.44 257.042 43.0667 257.042 42.56V37.8C257.042 37.2933 257.149 36.9333 257.362 36.72C257.602 36.48 257.975 36.36 258.482 36.36H262.442V22.92H258.482C257.975 22.92 257.602 22.8133 257.362 22.6C257.149 22.36 257.042 21.9867 257.042 21.48V16.64C257.042 16.1333 257.149 15.7733 257.362 15.56C257.602 15.32 257.975 15.2 258.482 15.2H275.522C276.029 15.2 276.389 15.32 276.602 15.56C276.842 15.7733 276.962 16.1333 276.962 16.64V21.48C276.962 21.9867 276.842 22.36 276.602 22.6C276.389 22.8133 276.029 22.92 275.522 22.92H271.642V36.36H275.522C276.029 36.36 276.389 36.48 276.602 36.72C276.842 36.9333 276.962 37.2933 276.962 37.8V42.56C276.962 43.0667 276.842 43.44 276.602 43.68C276.389 43.8933 276.029 44 275.522 44H258.482Z" fill="white"/>
<defs>
<linearGradient id="paint0_linear_4401_4698" x1="30" y1="0" x2="30" y2="60" gradientUnits="userSpaceOnUse">
<stop stop-color="#29B8ED"/>
<stop offset="1" stop-color="#2DF6A7"/>
</linearGradient>
<clipPath id="clip0_4401_4698">
<rect width="60" height="60" fill="white"/>
</clipPath>
</defs>
</svg>
