<svg width="206" height="60" viewBox="0 0 206 60" fill="none" xmlns="http://www.w3.org/2000/svg">
	<path fill-rule="evenodd" clip-rule="evenodd"
		d="M77.1107 23.0985C74.5497 23.0985 72.0954 23.9522 70.2789 25.5796C68.4595 27.2098 67.2906 29.607 67.2906 32.6681C67.2906 35.7291 68.4595 38.1264 70.2789 39.7565C72.0954 41.384 74.5497 42.2376 77.1107 42.2376C79.6717 42.2376 82.126 41.384 83.9425 39.7565C85.7619 38.1264 86.9307 35.7291 86.9307 32.6681C86.9307 29.6076 85.7749 27.2165 83.9614 25.5891C82.1509 23.9645 79.6957 23.1113 77.1107 23.0985ZM77.1107 40.8856C74.9247 40.8856 72.8257 40.1487 71.2756 38.7572C69.7284 37.3684 68.7178 35.3188 68.7178 32.6681C68.7178 27.4131 72.7649 24.4753 77.1112 24.4505C79.3224 24.4506 81.4209 25.1878 82.9643 26.5786C84.5049 27.967 85.5036 30.0165 85.5036 32.6681C85.5036 37.9488 81.4557 40.8856 77.1107 40.8856Z"
		fill="white" />
	<path
		d="M93.9954 41.4363V30.1034C95.2857 27.0822 98.0016 24.4756 101.537 24.4756C103.058 24.4756 104.211 24.9613 104.984 25.764C105.759 26.568 106.172 27.7106 106.172 29.0605V30.5887C106.172 30.7082 106.231 30.8025 106.297 30.862C106.359 30.919 106.449 30.9641 106.547 30.9641H107.248C107.368 30.9641 107.462 30.9046 107.522 30.8391C107.579 30.7764 107.624 30.6865 107.624 30.5887V29.0605C107.624 27.3171 107.098 25.822 106.06 24.762C105.022 23.7011 103.495 23.0985 101.537 23.0985C98.2316 23.0985 95.4832 25.1115 93.977 27.301L93.8701 24.2219C93.8697 23.9871 93.8215 23.8197 93.7353 23.7066C93.6456 23.5889 93.5292 23.5495 93.4447 23.5495H92.9186C92.7991 23.5495 92.7048 23.609 92.6453 23.6744C92.5883 23.7372 92.5432 23.8271 92.5432 23.9248V41.4363C92.5432 41.5558 92.6027 41.6501 92.6682 41.7096C92.7309 41.7666 92.8208 41.8117 92.9186 41.8117H93.62C93.7395 41.8117 93.8338 41.7522 93.8933 41.6867C93.9503 41.624 93.9954 41.5341 93.9954 41.4363Z"
		fill="white" />
	<path
		d="M113.667 15.4604C113.819 15.7123 113.887 16.0323 113.887 16.3341C113.887 16.6471 113.82 16.9682 113.667 17.2182C113.509 17.4749 113.256 17.6614 112.91 17.6614C112.561 17.6614 112.309 17.465 112.153 17.2077C112.002 16.9559 111.934 16.6358 111.934 16.3341C111.934 16.0289 112.009 15.709 112.164 15.4586C112.32 15.2054 112.571 15.0067 112.91 15.0067C113.26 15.0067 113.512 15.2032 113.667 15.4604Z"
		fill="white" />
	<path
		d="M112.311 23.6745C112.371 23.609 112.465 23.5495 112.585 23.5495H113.286C113.384 23.5495 113.474 23.5946 113.537 23.6516C113.602 23.7111 113.661 23.8054 113.661 23.9249V41.4364C113.661 41.5341 113.616 41.624 113.559 41.6868C113.5 41.7522 113.406 41.8117 113.286 41.8117H112.585C112.487 41.8117 112.397 41.7666 112.334 41.7096C112.269 41.6501 112.209 41.5558 112.209 41.4364V23.9249C112.209 23.8271 112.254 23.7372 112.311 23.6745Z"
		fill="white" />
	<path fill-rule="evenodd" clip-rule="evenodd"
		d="M123.633 41.8372C123.887 41.8372 124.12 41.8585 124.371 41.8815C124.392 41.8834 124.413 41.8854 124.434 41.8873H129.62C133.804 41.8873 135.207 44.1921 135.207 46.4969C135.207 49.2025 132.702 51.9833 127.766 51.9833H127.591C123.507 51.9833 120.501 49.7787 120.501 46.8476C120.501 44.2673 122.33 42.5888 123.633 41.8372ZM133.287 26.4063C133.916 27.4624 134.254 28.6406 134.254 29.9374C134.254 33.7108 131.379 36.7512 126.99 36.7512C125.135 36.7512 123.536 36.2017 122.29 35.2815C121.599 35.9106 120.952 36.7803 120.952 37.9541C120.952 38.8329 121.306 39.5125 121.916 39.9778C122.532 40.4478 123.424 40.7103 124.509 40.7103H129.645C131.973 40.7103 133.68 41.3402 134.808 42.3924C135.936 43.4457 136.459 44.8995 136.459 46.4969C136.459 49.6868 133.689 53.1353 127.766 53.1353H127.591C122.568 53.1353 119.249 50.3073 119.249 46.8226C119.249 44.5064 120.4 42.8029 121.967 41.6058C120.485 40.9489 119.524 39.5977 119.524 38.0042C119.524 36.4767 120.311 35.222 121.319 34.3272C120.294 33.1282 119.75 31.5645 119.75 29.9124C119.75 26.139 122.626 23.0986 127.015 23.0986C129.334 23.0986 131.211 23.9781 132.5 25.3096C133.338 24.0444 134.827 23.0986 136.735 23.0986C136.833 23.0986 136.923 23.1436 136.985 23.2007C137.051 23.2602 137.11 23.3545 137.11 23.4739V24.0752C137.11 24.1729 137.065 24.2628 137.008 24.3256C136.949 24.3906 136.856 24.4498 136.737 24.4505L136.735 24.4506V24.2506L136.739 24.4505L136.737 24.4505C135.452 24.4743 134.173 25.019 133.287 26.4063ZM133.002 29.9374C133.002 33.0689 130.597 35.5992 126.99 35.5992C123.382 35.5992 120.977 33.0689 120.977 29.9374C120.977 26.8059 123.382 24.2756 126.99 24.2756C130.597 24.2756 133.002 26.8059 133.002 29.9374Z"
		fill="white" />
	<path fill-rule="evenodd" clip-rule="evenodd"
		d="M141.27 29.4204V29.4113C141.27 27.3268 142.045 25.736 143.464 24.673C144.873 23.6165 146.895 23.0986 149.361 23.0986C152.614 23.0986 154.883 23.9468 156.339 25.3959C157.794 26.8448 158.405 28.8637 158.405 31.1399V41.4113C158.405 41.4889 158.38 41.5792 158.319 41.6538C158.253 41.7347 158.152 41.7867 158.029 41.7867H157.553C157.467 41.7867 157.328 41.7697 157.215 41.6561C157.103 41.5443 157.053 41.3769 157.053 41.1638L156.987 38.8804L156.467 39.2444C154.188 40.8647 151.217 42.2376 147.457 42.2376C145.295 42.2376 143.595 41.6844 142.43 40.7734C141.262 39.8602 140.644 38.5942 140.644 37.2025C140.644 35.8172 141.189 34.5912 142.342 33.7175C143.488 32.8489 145.215 32.3428 147.558 32.3428H156.978V31.1399C156.978 29.2532 156.515 27.5898 155.356 26.3973C154.197 25.2059 152.31 24.4506 149.386 24.4506C147.203 24.4506 145.543 24.8855 144.433 25.7165C143.333 26.5403 142.747 27.7728 142.747 29.4364V29.737C142.747 29.8347 142.702 29.9246 142.645 29.9874C142.586 30.0528 142.491 30.1124 142.372 30.1124H141.72C141.653 30.1124 141.595 30.0871 141.558 30.0672C141.517 30.0449 141.478 30.0156 141.443 29.9834C141.409 29.9513 141.374 29.9117 141.347 29.8661C141.323 29.8246 141.298 29.7666 141.295 29.6983L141.27 29.4204ZM147.532 33.4948C143.123 33.4948 141.871 35.499 141.871 37.2025C141.871 39.4322 144 41.0856 147.457 41.0856C151.34 41.0856 154.798 39.1817 157.153 37.2025V33.4948H147.532Z"
		fill="white" />
	<path
		d="M178.798 41.4364V29.5366C180.451 26.2798 183.157 24.2756 186.138 24.2506C189.269 24.2506 191.023 26.4301 191.023 30.2631V41.4113C191.023 41.5115 191.123 41.5867 191.198 41.5867H191.9C192 41.5867 192.075 41.4865 192.075 41.4113V30.2631C192.075 26.0794 190.096 23.2986 186.138 23.2986C183.006 23.2986 180.301 25.1274 178.597 28.0084H178.547C177.921 25.1274 176.017 23.2986 172.835 23.2986C169.704 23.2986 167.173 25.0773 165.57 27.6577H165.495L165.37 24.2255C165.37 23.7996 165.194 23.7495 165.144 23.7495H164.618C164.518 23.7495 164.443 23.8497 164.443 23.9249V41.4364C164.443 41.5366 164.543 41.6117 164.618 41.6117H165.319C165.42 41.6117 165.495 41.5115 165.495 41.4364V29.5867C167.073 26.4552 169.679 24.2756 172.86 24.2756C175.992 24.2756 177.745 26.4552 177.745 30.2881V41.4364C177.745 41.5366 177.846 41.6117 177.921 41.6117H178.622C178.722 41.6117 178.798 41.5115 178.798 41.4364Z"
		fill="white" />
	<path fill-rule="evenodd" clip-rule="evenodd"
		d="M178.998 41.4364C178.998 41.5341 178.953 41.624 178.895 41.6868C178.836 41.7522 178.742 41.8117 178.622 41.8117H177.921C177.823 41.8117 177.733 41.7667 177.67 41.7096C177.605 41.6501 177.545 41.5558 177.545 41.4364V30.2881C177.545 28.3987 177.113 26.9466 176.322 25.9704C175.536 25.0006 174.376 24.4756 172.86 24.4756C169.795 24.4756 167.255 26.5657 165.695 29.6344V41.4364C165.695 41.5341 165.65 41.624 165.593 41.6868C165.533 41.7522 165.439 41.8117 165.32 41.8117H164.618C164.52 41.8117 164.43 41.7666 164.368 41.7096C164.302 41.6501 164.243 41.5558 164.243 41.4364V23.9249C164.243 23.8271 164.288 23.7372 164.345 23.6745C164.404 23.609 164.499 23.5495 164.618 23.5495H165.144C165.229 23.5495 165.345 23.5889 165.435 23.7066C165.521 23.8197 165.569 23.987 165.57 24.2217L165.676 27.1296C167.316 24.733 169.795 23.0986 172.835 23.0986C174.466 23.0986 175.786 23.5682 176.78 24.4214C177.678 25.1923 178.296 26.2648 178.642 27.5531C180.383 24.828 183.052 23.0986 186.138 23.0986C188.168 23.0986 189.713 23.8142 190.746 25.0858C191.774 26.3513 192.275 28.1429 192.275 30.2631V41.4113C192.275 41.5091 192.23 41.599 192.173 41.6617C192.114 41.7271 192.019 41.7867 191.9 41.7867H191.198C191.101 41.7867 191.011 41.7416 190.948 41.6846C190.883 41.6251 190.823 41.5308 190.823 41.4113V30.2631C190.823 28.3737 190.39 26.9215 189.599 25.9454C188.814 24.9757 187.654 24.4507 186.139 24.4506C183.267 24.4751 180.63 26.3986 178.998 29.5846V41.4364Z"
		fill="white" />
	<path fill-rule="evenodd" clip-rule="evenodd"
		d="M199.646 15.4604C199.798 15.7123 199.866 16.0323 199.866 16.3341C199.866 16.6471 199.799 16.9682 199.646 17.2182C199.489 17.4749 199.236 17.6614 198.889 17.6614C198.54 17.6614 198.288 17.465 198.133 17.2077C197.981 16.9559 197.913 16.6358 197.913 16.3341C197.913 16.0323 197.981 15.7123 198.133 15.4604C198.288 15.2032 198.54 15.0067 198.889 15.0067C199.239 15.0067 199.491 15.2032 199.646 15.4604ZM198.265 23.6745C198.325 23.609 198.419 23.5495 198.539 23.5495H199.24C199.338 23.5495 199.428 23.5946 199.491 23.6516C199.556 23.7111 199.616 23.8054 199.616 23.9249V41.4364C199.616 41.5341 199.57 41.624 199.513 41.6868C199.454 41.7522 199.36 41.8117 199.24 41.8117H198.539C198.441 41.8117 198.351 41.7666 198.288 41.7096C198.223 41.6501 198.163 41.5558 198.163 41.4364V23.9249C198.163 23.8271 198.208 23.7372 198.265 23.6745Z"
		fill="white" />
	<path
		d="M48.7266 13.929L41.9124 23.3737L37.904 14.405L34.2714 18.4635L30.7892 9.51984L24.8769 21.5198L18.6389 12.5512L6.23804 39.357L20.9186 33.2443L34.046 52.5595L47.1984 35.3737L59.1483 41.4614L48.7266 13.929ZM48.927 16.7599L57.6451 39.8079L47.5992 34.6973L48.927 16.7599ZM48.1754 16.1086L46.8226 34.572L46.7725 34.6221L42.3132 24.2505L42.5888 23.8497L48.1754 16.1086ZM41.3612 24.1253L46.1963 35.3737L34.6723 50.4301L38.0794 16.785L41.1858 23.7244L41.3612 24.1253ZM37.3278 16.309L33.8205 50.8059L21.6201 32.8434L33.9959 19.9666V19.9917L34.2213 19.7411L34.5971 19.3653L34.5721 19.3403L34.8727 19.0146L37.3278 16.309ZM33.6952 19.1399L31.7161 21.1942L31.2401 12.8518L33.5449 18.739L33.6952 19.1399ZM30.3884 12.2004L30.9395 21.9958L27.5825 25.4781L25.403 22.2464L25.6034 21.8706L30.3884 12.2004ZM24.9771 23.0981L27.0063 26.0793L21.1942 32.1169L19.2902 14.9562L24.1754 21.9958L24.9771 23.0981ZM18.4886 14.8309L20.4426 32.5679L7.84138 37.8288L18.4886 14.8309Z"
		fill="url(#paint0_linear_145_209)" />
	<defs>
		<linearGradient id="paint0_linear_145_209" x1="8.9314" y1="31.0397" x2="56.8033" y2="31.0397"
			gradientUnits="userSpaceOnUse">
			<stop offset="0.1239" stop-color="#2DF6A7" />
			<stop offset="0.8483" stop-color="#2EB8EC" />
		</linearGradient>
	</defs>
</svg>