<svg width="160" height="160" viewBox="0 0 160 160" fill="none" xmlns="http://www.w3.org/2000/svg">
    <path fill-rule="evenodd" clip-rule="evenodd"
        d="M5.13288 80L80 5.13288L154.867 80L80 154.867L5.13288 80ZM1.50338 83.6295C-0.501132 81.625 -0.501126 78.375 1.50339 76.3705L76.3705 1.50338C78.375 -0.501131 81.625 -0.501126 83.6295 1.50339L158.497 76.3705C160.501 78.375 160.501 81.625 158.497 83.6295L83.6295 158.497C81.625 160.501 78.375 160.501 76.3705 158.497L1.50338 83.6295ZM21.7236 67.9195L13.2725 76.3705C11.268 78.375 11.268 81.625 13.2725 83.6295L21.7236 92.0805C22.7258 93.0828 24.3508 93.0828 25.3531 92.0805C26.3553 91.0783 26.3553 89.4533 25.3531 88.451L16.902 80L25.3531 71.549C26.3553 70.5467 26.3553 68.9218 25.3531 67.9195C24.3508 66.9172 22.7258 66.9172 21.7236 67.9195ZM67.9195 21.7235C66.9172 22.7258 66.9172 24.3508 67.9195 25.353C68.9218 26.3553 70.5467 26.3553 71.549 25.353L80 16.902L88.451 25.353C89.4533 26.3553 91.0783 26.3553 92.0805 25.353C93.0828 24.3508 93.0828 22.7258 92.0805 21.7236L83.6295 13.2725C81.625 11.268 78.375 11.268 76.3705 13.2725L67.9195 21.7235ZM80 143.098L71.549 134.647C70.5467 133.645 68.9218 133.645 67.9195 134.647C66.9172 135.649 66.9172 137.274 67.9195 138.276L76.3705 146.727C78.375 148.732 81.625 148.732 83.6295 146.727L92.0805 138.276C93.0828 137.274 93.0828 135.649 92.0805 134.647C91.0783 133.645 89.4533 133.645 88.451 134.647L80 143.098ZM138.276 67.9195C137.274 66.9172 135.649 66.9172 134.647 67.9195C133.645 68.9218 133.645 70.5467 134.647 71.549L143.098 80L134.647 88.451C133.645 89.4533 133.645 91.0783 134.647 92.0805C135.649 93.0828 137.274 93.0828 138.276 92.0805L146.727 83.6295C148.732 81.625 148.732 78.375 146.727 76.3705L138.276 67.9195ZM80 100.532C91.3392 100.532 100.532 91.3392 100.532 80C100.532 68.6608 91.3392 59.4685 80 59.4685C74.393 59.4685 69.311 61.716 65.6057 65.3594L65.3594 65.6057C61.7161 69.311 59.4685 74.393 59.4685 80C59.4685 85.4539 61.595 90.411 65.064 94.0877L65.8834 94.9086C69.5629 98.3939 74.5318 100.532 80 100.532ZM54.4623 82.5664C54.9749 87.7293 57.0176 92.4421 60.1304 96.245L57.6555 98.7151C56.6523 99.7164 56.6507 101.341 57.652 102.345C58.6533 103.348 60.2783 103.349 61.2815 102.348L63.7604 99.874C67.5623 102.984 72.2731 105.025 77.4336 105.538V113.364C77.4336 114.781 78.5826 115.93 80 115.93C81.4174 115.93 82.5664 114.781 82.5664 113.364V105.538C87.7287 105.025 92.441 102.983 96.2436 99.8707L98.7159 102.345C99.7176 103.348 101.343 103.349 102.345 102.347C103.348 101.345 103.349 99.7202 102.347 98.7175L99.8729 96.241C102.984 92.4389 105.025 87.7275 105.538 82.5664H113.364C114.781 82.5664 115.93 81.4174 115.93 80C115.93 78.5826 114.781 77.4336 113.364 77.4336H105.538C105.025 72.2745 102.986 67.565 99.8766 63.7636L102.357 61.2831C103.359 60.2807 103.358 58.6557 102.356 57.6536C101.354 56.6514 99.7287 56.6516 98.7266 57.654L96.2482 60.133C92.4448 57.0187 87.7308 54.9751 82.5664 54.4623V46.6363C82.5664 45.2189 81.4174 44.0698 80 44.0698C78.5826 44.0698 77.4336 45.2189 77.4336 46.6363V54.4623C72.2733 54.9747 67.5627 57.0155 63.7608 60.1256L61.2864 57.6512C60.2842 56.649 58.6592 56.649 57.6569 57.6512C56.6547 58.6535 56.6547 60.2785 57.6569 61.2807L60.1308 63.7545C57.0177 67.5575 54.9749 72.2705 54.4623 77.4336H46.6363C45.2189 77.4336 44.0698 78.5826 44.0698 80C44.0698 81.4174 45.2189 82.5664 46.6363 82.5664H54.4623ZM90.2658 80C90.2658 85.6696 85.6696 90.2658 80 90.2658C74.3304 90.2658 69.7342 85.6696 69.7342 80C69.7342 74.3304 74.3304 69.7342 80 69.7342C85.6696 69.7342 90.2658 74.3304 90.2658 80ZM85.1329 80C85.1329 82.8348 82.8348 85.1329 80 85.1329C77.1652 85.1329 74.8671 82.8348 74.8671 80C74.8671 77.1652 77.1652 74.8671 80 74.8671C82.8348 74.8671 85.1329 77.1652 85.1329 80Z"
        fill="white" />
    <path fill-rule="evenodd" clip-rule="evenodd"
        d="M21.7236 67.9195L13.2725 76.3705C11.268 78.375 11.268 81.625 13.2725 83.6295L21.7236 92.0805C22.7258 93.0828 24.3508 93.0828 25.3531 92.0805C26.3553 91.0783 26.3553 89.4533 25.3531 88.451L16.902 80L25.3531 71.549C26.3553 70.5467 26.3553 68.9218 25.3531 67.9195C24.3508 66.9172 22.7258 66.9172 21.7236 67.9195ZM67.9195 21.7235C66.9172 22.7258 66.9172 24.3508 67.9195 25.353C68.9218 26.3553 70.5467 26.3553 71.549 25.353L80 16.902L88.451 25.353C89.4533 26.3553 91.0783 26.3553 92.0805 25.353C93.0828 24.3508 93.0828 22.7258 92.0805 21.7236L83.6295 13.2725C81.625 11.268 78.375 11.268 76.3705 13.2725L67.9195 21.7235ZM80 143.098L71.549 134.647C70.5467 133.645 68.9218 133.645 67.9195 134.647C66.9172 135.649 66.9172 137.274 67.9195 138.276L76.3705 146.727C78.375 148.732 81.625 148.732 83.6295 146.727L92.0805 138.276C93.0828 137.274 93.0828 135.649 92.0805 134.647C91.0783 133.645 89.4533 133.645 88.451 134.647L80 143.098ZM138.276 67.9195C137.274 66.9172 135.649 66.9172 134.647 67.9195C133.645 68.9218 133.645 70.5467 134.647 71.549L143.098 80L134.647 88.451C133.645 89.4533 133.645 91.0783 134.647 92.0805C135.649 93.0828 137.274 93.0828 138.276 92.0805L146.727 83.6295C148.732 81.625 148.732 78.375 146.727 76.3705L138.276 67.9195ZM90.2658 80C90.2658 85.6696 85.6696 90.2658 80 90.2658C74.3304 90.2658 69.7342 85.6696 69.7342 80C69.7342 74.3304 74.3304 69.7342 80 69.7342C85.6696 69.7342 90.2658 74.3304 90.2658 80ZM107.479 148.542L101.595 154.427H131.329C132.746 154.427 133.895 155.576 133.895 156.993C133.895 158.411 132.746 159.56 131.329 159.56H95.5226C93.1905 159.56 92.0224 156.74 93.6715 155.091L103.85 144.913C104.852 143.91 106.477 143.91 107.479 144.913C108.481 145.915 108.481 147.54 107.479 148.542ZM52.5208 148.542C51.5186 147.54 51.5186 145.915 52.5208 144.913C53.5231 143.91 55.1481 143.91 56.1503 144.913L66.3285 155.091C67.9777 156.74 66.8095 159.56 64.4774 159.56H28.6712C27.2538 159.56 26.1047 158.411 26.1047 156.993C26.1047 155.576 27.2538 154.427 28.6712 154.427H58.4054L52.5208 148.542ZM85.1329 80C85.1329 82.8348 82.8348 85.1329 80 85.1329C77.1652 85.1329 74.8671 82.8348 74.8671 80C74.8671 77.1652 77.1652 74.8671 80 74.8671C82.8348 74.8671 85.1329 77.1652 85.1329 80Z"
        fill="url(#paint0_linear_4232_4779)" />
    <defs>
        <linearGradient id="paint0_linear_4232_4779" x1="148.231" y1="79.9999" x2="1.086e-06" y2="79.9999"
            gradientUnits="userSpaceOnUse">
            <stop stop-color="#29B8ED" />
            <stop offset="1" stop-color="#2DF6A7" />
        </linearGradient>
    </defs>
</svg>