<svg width="150" height="176" viewBox="0 0 150 176" fill="none" xmlns="http://www.w3.org/2000/svg">
    <path fill-rule="evenodd" clip-rule="evenodd"
        d="M75 5.00079C63.6972 5.00079 54.5344 14.1635 54.5344 25.4664C54.5344 36.7692 63.6972 45.9319 75 45.9319C86.3028 45.9319 95.4656 36.7692 95.4656 25.4664C95.4656 14.1635 86.3028 5.00079 75 5.00079ZM49.9865 25.4664C49.9865 11.6518 61.1854 0.452881 75 0.452881C88.8146 0.452881 100.013 11.6518 100.013 25.4664C100.013 39.2809 88.8146 50.4798 75 50.4798C61.1854 50.4798 49.9865 39.2809 49.9865 25.4664ZM1.49856 90.0671C-0.499521 92.0652 -0.499517 95.3047 1.49856 97.3027L30.7555 126.56C31.6435 127.448 33.0833 127.448 33.9713 126.56C34.8594 125.672 34.8594 124.232 33.9713 123.344L4.71441 94.0869C4.4924 93.8649 4.4924 93.5049 4.71441 93.2829L44.3017 53.6957V59.5756C44.3017 60.8315 45.3197 61.8496 46.5756 61.8496C47.8315 61.8496 48.8496 60.8315 48.8496 59.5756V49.5783C48.8496 47.046 45.7878 45.7778 43.9972 47.5684L1.49856 90.0671ZM105.032 46.5979C104.144 45.7099 102.705 45.7099 101.816 46.5979C100.928 47.486 100.928 48.9258 101.816 49.8138L145.286 93.2829C145.508 93.5049 145.508 93.8649 145.286 94.0869L119.911 119.462V105.055C119.911 103.799 118.892 102.781 117.637 102.781C116.381 102.781 115.363 103.799 115.363 105.055V123.579C115.363 126.112 118.424 127.38 120.215 125.589L148.501 97.3027C150.5 95.3047 150.5 92.0652 148.501 90.0671L105.032 46.5979ZM43.1647 139.164C43.1647 121.582 57.4178 107.329 75 107.329C92.5822 107.329 106.835 121.582 106.835 139.164C106.835 156.746 92.5822 170.999 75 170.999C57.4178 170.999 43.1647 156.746 43.1647 139.164ZM75 102.781C54.9061 102.781 38.6168 119.07 38.6168 139.164C38.6168 159.258 54.9061 175.547 75 175.547C95.0939 175.547 111.383 159.258 111.383 139.164C111.383 119.07 95.0939 102.781 75 102.781ZM77.2739 119.267C77.2739 118.011 76.2559 116.993 75 116.993C73.7441 116.993 72.7261 118.011 72.7261 119.267V125.52H63.9047C61.7776 125.52 60.7123 128.092 62.2164 129.596L80.88 148.26H75H63.6302C62.3744 148.26 61.3563 149.278 61.3563 150.534C61.3563 151.79 62.3744 152.808 63.6302 152.808H72.7261V159.061C72.7261 160.317 73.7441 161.335 75 161.335C76.2559 161.335 77.2739 160.317 77.2739 159.061V152.808H86.0953C88.2224 152.808 89.2878 150.236 87.7836 148.732L69.12 130.068H75H86.3698C87.6256 130.068 88.6437 129.05 88.6437 127.794C88.6437 126.538 87.6256 125.52 86.3698 125.52H77.2739V119.267ZM75 11.8226C76.2559 11.8226 77.2739 12.8407 77.2739 14.0966V16.6954H80.6849C81.9407 16.6954 82.9588 17.7135 82.9588 18.9694C82.9588 20.2252 81.9407 21.2433 80.6849 21.2433H75H74.3264L82.2312 30.2774C83.5821 31.8212 82.4857 34.2373 80.4343 34.2373H77.2739V36.8361C77.2739 38.092 76.2559 39.1101 75 39.1101C73.7441 39.1101 72.7261 38.092 72.7261 36.8361V34.2373H69.3151C68.0592 34.2373 67.0412 33.2192 67.0412 31.9634C67.0412 30.7075 68.0592 29.6894 69.3151 29.6894H75H75.6736L67.7688 20.6553C66.418 19.1115 67.5143 16.6954 69.5657 16.6954H72.7261V14.0966C72.7261 12.8407 73.7441 11.8226 75 11.8226ZM31.1289 83.9231C32.0169 83.035 32.0169 81.5953 31.1289 80.7072C30.2409 79.8192 28.8011 79.8192 27.913 80.7072L16.6237 91.9966C15.6913 92.929 15.6912 94.4408 16.6237 95.3732L22.2282 100.978C23.1162 101.866 24.556 101.866 25.444 100.978C26.3321 100.09 26.3321 98.6499 25.444 97.7619L21.3671 93.6849L31.1289 83.9231ZM118.871 80.7072C117.983 81.5953 117.983 83.035 118.871 83.9231L128.633 93.6849L124.556 97.7619C123.668 98.6499 123.668 100.09 124.556 100.978C125.444 101.866 126.884 101.866 127.772 100.978L133.376 95.3732C134.309 94.4408 134.309 92.929 133.376 91.9966L122.087 80.7072C121.199 79.8192 119.759 79.8192 118.871 80.7072ZM78.4109 59.5756C78.4109 58.3198 79.429 57.3017 80.6849 57.3017C81.9407 57.3017 82.9588 58.3198 82.9588 59.5756V93.6849C82.9588 94.9408 81.9407 95.9589 80.6849 95.9589C79.429 95.9589 78.4109 94.9408 78.4109 93.6849V59.5756ZM67.0412 59.5756C67.0412 58.3198 68.0592 57.3017 69.3151 57.3017C70.571 57.3017 71.5891 58.3198 71.5891 59.5756V93.6849C71.5891 94.9408 70.571 95.9589 69.3151 95.9589C68.0592 95.9589 67.0412 94.9408 67.0412 93.6849V59.5756Z"
        fill="white" />
    <path fill-rule="evenodd" clip-rule="evenodd"
        d="M77.2741 119.267C77.2741 118.011 76.256 116.993 75.0002 116.993C73.7443 116.993 72.7262 118.011 72.7262 119.267V125.52H63.9049C61.7777 125.52 60.7124 128.092 62.2166 129.596L80.8801 148.26H75.0002H63.6304C62.3745 148.26 61.3564 149.278 61.3564 150.534C61.3564 151.79 62.3745 152.808 63.6304 152.808H72.7262V159.061C72.7262 160.317 73.7443 161.335 75.0002 161.335C76.256 161.335 77.2741 160.317 77.2741 159.061V152.808H86.0954C88.2225 152.808 89.2879 150.236 87.7837 148.732L69.1202 130.068H75.0002H86.3699C87.6258 130.068 88.6439 129.05 88.6439 127.794C88.6439 126.538 87.6258 125.52 86.3699 125.52H77.2741V119.267ZM75.0002 11.8228C76.256 11.8228 77.2741 12.8408 77.2741 14.0967V16.6955H80.685C81.9409 16.6955 82.959 17.7136 82.959 18.9695C82.959 20.2253 81.9409 21.2434 80.685 21.2434H75.0002H74.3265L82.2314 30.2775C83.5822 31.8213 82.4858 34.2374 80.4345 34.2374H77.2741V36.8362C77.2741 38.0921 76.256 39.1102 75.0002 39.1102C73.7443 39.1102 72.7262 38.0921 72.7262 36.8362V34.2374H69.3153C68.0594 34.2374 67.0413 33.2193 67.0413 31.9635C67.0413 30.7076 68.0594 29.6895 69.3153 29.6895H75.0002H75.6738L67.7689 20.6554C66.4181 19.1116 67.5145 16.6955 69.5658 16.6955H72.7262V14.0967C72.7262 12.8408 73.7443 11.8228 75.0002 11.8228ZM78.4111 59.5757C78.4111 58.3199 79.4292 57.3018 80.685 57.3018C81.9409 57.3018 82.959 58.3199 82.959 59.5757V93.685C82.959 94.9409 81.9409 95.959 80.685 95.959C79.4292 95.959 78.4111 94.9409 78.4111 93.685V59.5757ZM67.0413 59.5757C67.0413 58.3199 68.0594 57.3018 69.3153 57.3018C70.5711 57.3018 71.5892 58.3199 71.5892 59.5757V93.685C71.5892 94.9409 70.5711 95.959 69.3153 95.959C68.0594 95.959 67.0413 94.9409 67.0413 93.685V59.5757Z"
        fill="url(#paint0_linear_4232_4787)" />
    <defs>
        <linearGradient id="paint0_linear_4232_4787" x1="88.6439" y1="86.5789" x2="61.3564" y2="86.5789"
            gradientUnits="userSpaceOnUse">
            <stop stop-color="#29B8ED" />
            <stop offset="1" stop-color="#2DF6A7" />
        </linearGradient>
    </defs>
</svg>